<?xml version="1.0" encoding="UTF-8" standalone="no"?>
<!DOCTYPE svg PUBLIC "-//W3C//DTD SVG 1.1//EN" "http://www.w3.org/Graphics/SVG/1.1/DTD/svg11.dtd">
<svg width="100%" height="100%" viewBox="-2 -8 261 68" version="1.1" xmlns="http://www.w3.org/2000/svg" xmlns:xlink="http://www.w3.org/1999/xlink" xml:space="preserve" xmlns:serif="http://www.serif.com/" style="fill-rule:evenodd;clip-rule:evenodd;stroke-miterlimit:2;">
    <g transform="matrix(1,0,0,1,-67,-123)">
        <g transform="matrix(1,0,0,1,-0.696801,0.044443)">
            <clipPath id="_clip1">
                <rect x="71.76" y="142" width="233.24" height="19.84"/>
            </clipPath>
            <g clip-path="url(#_clip1)">
                <path d="M71.76,161.84L305,161.84" style="fill:none;stroke:black;stroke-width:0.64px;"/>
                <path d="M71.76,156.88L305,156.88" style="fill:none;stroke:black;stroke-width:0.64px;"/>
                <path d="M71.76,151.92L305,151.92" style="fill:none;stroke:black;stroke-width:0.64px;"/>
                <path d="M71.76,146.96L305,146.96" style="fill:none;stroke:black;stroke-width:0.64px;"/>
                <path d="M71.76,142L305,142" style="fill:none;stroke:black;stroke-width:0.64px;"/>
            </g>
        </g>
        <g transform="matrix(1,0,0,1,-0.696801,0.044443)">
            <clipPath id="_clip2">
                <rect x="135.452" y="141.678" width="169.151" height="20.484"/>
            </clipPath>
            <g clip-path="url(#_clip2)">
                <path d="M135.452,141.678L135.452,162.162" style="fill:none;stroke:black;stroke-width:0.79px;"/>
                <path d="M269.784,141.678L269.784,162.162" style="fill:none;stroke:black;stroke-width:0.79px;"/>
            </g>
        </g>
        <g transform="matrix(1,0,0,1,-0.696801,0.044443)">
            <path d="M125.444,134.758L125.444,150.928" style="fill:none;stroke:black;stroke-width:0.6px;"/>
            <path d="M148.939,136.42L148.939,150.928" style="fill:none;stroke:black;stroke-width:0.6px;"/>
            <path d="M170.508,138.28L170.508,153.408" style="fill:none;stroke:black;stroke-width:0.6px;"/>
            <path d="M186.735,150.283L186.735,165.56" style="fill:none;stroke:black;stroke-width:0.6px;"/>
            <path d="M208.289,152.763L208.289,167.42" style="fill:none;stroke:black;stroke-width:0.6px;"/>
            <path d="M232.287,145.323L232.287,163.188" style="fill:none;stroke:black;stroke-width:0.6px;"/>
            <path d="M244.753,152.763L244.753,166.908" style="fill:none;stroke:black;stroke-width:0.6px;"/>
            <path d="M257.219,157.723L257.219,170.628" style="fill:none;stroke:black;stroke-width:0.6px;"/>
            <path d="M277.929,147.803L277.929,163.665" style="fill:none;stroke:black;stroke-width:0.6px;"/>
        </g>
        <g transform="matrix(0.5,0,0,0.5,124.450199,134.604443)">
            <path d="M11.04,22.48C11.04,18.32 8.96,15.68 6.72,12.88C6.2,12.24 5.68,11.56 5.12,10.88C1.96,6.52 1.2,4.2 1.2,-1.24C1.2,-1.6 0.84,-2 0.6,-2.08L0.56,-2.08C0.24,-2.08 0,-1.6 0,-1.24L0,11.52C0,12.4 0.4,12.44 0.84,12.48C1,12.52 1.08,12.52 1.16,12.56C5.6,14.08 10,17.92 10,23.04C10,24.52 9.2,26.76 8.72,28.08C8.44,28.76 8.2,28.96 8.2,29.28C8.2,29.64 8.32,30.12 8.56,30.12C8.6,30.12 8.68,30.12 8.8,30.08L8.76,30.08C9.64,29.6 11.04,24.96 11.04,22.48" style="fill-rule:nonzero;"/>
        </g>
        <g transform="matrix(0.5,0,0,0.5,119.107199,151.964443)">
            <path d="M8.04,-5.6C4.28,-5.6 0,-2.36 0,1.84C0,4.44 1.48,5.64 3.84,5.64C7.64,5.64 11.88,2.4 11.88,-1.8C11.88,-4.4 10.4,-5.6 8.04,-5.6" style="fill-rule:nonzero;"/>
        </g>
        <g transform="matrix(0.5,0,0,0.5,142.602199,151.964443)">
            <path d="M8.04,-5.6C4.28,-5.6 0,-2.36 0,1.84C0,4.44 1.48,5.64 3.84,5.64C7.64,5.64 11.88,2.4 11.88,-1.8C11.88,-4.4 10.4,-5.6 8.04,-5.6" style="fill-rule:nonzero;"/>
        </g>
        <g transform="matrix(0.5,0,0,0.5,164.171199,154.444443)">
            <path d="M8.04,-5.6C4.28,-5.6 0,-2.36 0,1.84C0,4.44 1.48,5.64 3.84,5.64C7.64,5.64 11.88,2.4 11.88,-1.8C11.88,-4.4 10.4,-5.6 8.04,-5.6" style="fill-rule:nonzero;"/>
        </g>
        <g transform="matrix(0.5,0,0,0.5,185.741199,149.484443)">
            <path d="M8.04,-5.6C4.28,-5.6 0,-2.36 0,1.84C0,4.44 1.48,5.64 3.84,5.64C7.64,5.64 11.88,2.4 11.88,-1.8C11.88,-4.4 10.4,-5.6 8.04,-5.6" style="fill-rule:nonzero;"/>
        </g>
        <g transform="matrix(0.5,0,0,0.5,207.294199,151.964443)">
            <path d="M8.04,-5.6C4.28,-5.6 0,-2.36 0,1.84C0,4.44 1.48,5.64 3.84,5.64C7.64,5.64 11.88,2.4 11.88,-1.8C11.88,-4.4 10.4,-5.6 8.04,-5.6" style="fill-rule:nonzero;"/>
        </g>
        <g transform="matrix(0.5,0,0,0.5,231.292199,144.524443)">
            <path d="M8.04,-5.6C4.28,-5.6 0,-2.36 0,1.84C0,4.44 1.48,5.64 3.84,5.64C7.64,5.64 11.88,2.4 11.88,-1.8C11.88,-4.4 10.4,-5.6 8.04,-5.6" style="fill-rule:nonzero;"/>
        </g>
        <g transform="matrix(0.5,0,0,0.5,243.758199,151.964443)">
            <path d="M8.04,-5.6C4.28,-5.6 0,-2.36 0,1.84C0,4.44 1.48,5.64 3.84,5.64C7.64,5.64 11.88,2.4 11.88,-1.8C11.88,-4.4 10.4,-5.6 8.04,-5.6" style="fill-rule:nonzero;"/>
        </g>
        <g transform="matrix(0.5,0,0,0.5,256.224199,156.924443)">
            <path d="M8.04,-5.6C4.28,-5.6 0,-2.36 0,1.84C0,4.44 1.48,5.64 3.84,5.64C7.64,5.64 11.88,2.4 11.88,-1.8C11.88,-4.4 10.4,-5.6 8.04,-5.6" style="fill-rule:nonzero;"/>
        </g>
        <g transform="matrix(0.5,0,0,0.5,276.934199,164.364443)">
            <path d="M11.64,-21.6C11.64,-24.12 10.04,-28.8 9.16,-29.36C9.08,-29.4 9.04,-29.4 9,-29.4C8.64,-29.4 8.6,-28.92 8.6,-28.52C8.6,-28.2 8.84,-27.64 9.12,-26.92C9.72,-25.6 10.52,-23.68 10.52,-22.16C10.52,-16.92 5.84,-12.96 1.12,-11.48C0.84,-11.36 0.6,-11.32 0.28,-11.32C0.24,-11.32 0.2,-11.28 0.2,-11.24C-0.04,-11.08 -0.12,-10.76 -0.12,-10.4L-0.12,2.6C-0.12,3 0.12,3.48 0.48,3.48L0.52,3.48C0.76,3.4 1.16,3 1.16,2.6C1.16,-4.36 2.84,-6.76 7,-11.8C9.4,-14.64 11.64,-17.32 11.64,-21.6" style="fill-rule:nonzero;"/>
        </g>
        <g transform="matrix(0.5,0,0,0.5,276.934199,147.004443)">
            <path d="M8.04,-5.6C4.28,-5.6 0,-2.36 0,1.84C0,4.44 1.48,5.64 3.84,5.64C7.64,5.64 11.88,2.4 11.88,-1.8C11.88,-4.4 10.4,-5.6 8.04,-5.6" style="fill-rule:nonzero;"/>
        </g>
        <g transform="matrix(0.5,0,0,0.5,292.185199,151.964443)">
            <path d="M9.72,-8.92C9.68,-8.92 9.6,-8.84 9.6,-8.72C8.96,-6.36 7.04,-2.68 4.2,-2.68C3.92,-2.68 2.56,-2.96 2.56,-3.32C2.56,-3.44 2.68,-3.48 2.96,-3.48C4.4,-3.48 5.56,-4.68 5.56,-6.24C5.56,-7.8 4.48,-8.92 2.96,-8.92C1.12,-8.92 0,-7.16 0,-5.48C0,-3.24 1.68,-1.24 4.04,-1.24C5.6,-1.24 6.96,-1.92 8.08,-3.28L4.88,9.6C4.88,9.8 4.92,9.96 5,9.96L5.92,9.96C5.96,9.96 6.04,9.88 6.04,9.76L10.6,-8.56C10.6,-8.76 10.56,-8.92 10.48,-8.92L9.72,-8.92" style="fill-rule:nonzero;"/>
        </g>
        <g transform="matrix(0.5,0,0,0.5,66.784299,162.222443)">
            <path d="M0.41,-20.5C2.009,-19.516 2.747,-18.286 2.747,-16.646C2.747,-14.35 1.107,-12.136 1.312,-8.692C1.517,-5.412 2.747,-1.271 3.895,-0.041L4.1,-0.123C3.403,-1.148 2.665,-3.977 2.46,-6.56C2.173,-10.209 3.977,-12.915 3.977,-15.662C3.977,-17.794 3.116,-19.311 1.23,-20.5C3.116,-21.689 3.977,-23.206 3.977,-25.338C3.977,-28.085 2.173,-30.791 2.46,-34.44C2.665,-37.023 3.403,-39.852 4.1,-40.877L3.895,-40.959C2.747,-39.729 1.517,-35.588 1.312,-32.308C1.107,-28.864 2.747,-26.65 2.747,-24.354C2.747,-22.714 2.009,-21.484 0.41,-20.5" style="fill-rule:nonzero;"/>
        </g>
        <g transform="matrix(0.5,0,0,0.5,73.543199,156.924443)">
            <path d="M14.6,-5.6C15.16,-5.8 16.16,-5.88 16.8,-5.88C20.28,-5.88 22,-2.72 22,0.64C22,3.24 20.32,5.8 18.08,6.92L17.92,6.96C17.88,6.92 17.84,6.84 17.8,6.8C17.36,5.52 14.56,-4.6 14.48,-5.44L14.6,-5.6M12.6,5.32C12.4,4.4 9.52,3.16 9.52,-0.04C9.52,-2.2 11.04,-3.88 12.8,-4.84C12.92,-4.84 12.96,-4.84 13.04,-4.72C13.8,-2.92 14.36,-0.2 14.88,1.72C15.44,3.68 15.96,5.6 16.44,7.56C16.04,8.08 13.36,8.36 12.68,8.36C7.36,8.36 3.48,4.12 3.48,-1.4C3.48,-6.28 6.84,-10.24 10.4,-13.04L10.6,-13.16C10.72,-13.08 11.72,-9.48 11.72,-9.24C11.72,-9.16 11.68,-9.08 11.64,-9.04C9.08,-6.96 7.32,-5.08 7.32,-1.48C7.32,1.12 8.68,3.84 10.92,5.08C11.04,5.16 11.88,5.6 12.04,5.6L12.32,5.6L12.6,5.32M16.32,-41.16C16.4,-41.16 16.44,-41.08 16.48,-41.04C17.76,-38.72 18.68,-34.28 18.68,-31.6C18.68,-26.76 14.36,-22.36 10.92,-19.6L10.76,-19.48C10.72,-19.52 10.68,-19.64 10.64,-19.68C9.72,-22.48 8.6,-25.76 8.6,-28.72C8.6,-33.84 12.16,-38.6 16.2,-41.12L16.32,-41.16M12.08,-14.4C12.08,-14.44 12.08,-14.48 12.12,-14.52C17.2,-19.24 20.44,-23.32 20.44,-30.8C20.44,-35.68 18.44,-41.76 15.72,-45.72C15.56,-45.92 15.36,-45.96 15.12,-45.96C15.04,-45.96 14.84,-45.8 14.76,-45.76C10.12,-42.32 6.92,-36.08 6.92,-30.16C6.92,-26.68 7.88,-23.12 8.84,-19.8C9,-19.24 9.16,-18.76 9.2,-18.16L9.16,-18.04C4.64,-13.92 0,-9.48 0,-2.68C0,5.12 6.44,10.2 13.48,10.2C14.72,10.2 15.92,9.96 17.04,9.6C17.72,11.08 18.52,15.84 18.52,17.48C18.52,21.44 16.52,23.56 12.72,23.56C12.2,23.56 9.88,23.52 10.72,22.56C12.96,22.92 14.6,20.96 14.6,18.6C14.6,15.96 13.08,13.48 10.32,13.48C7.56,13.48 5.52,15.6 5.52,18.48C5.52,22.44 9.04,25.16 12.48,25.16C16.56,25.16 20.04,22.48 20.04,17.96C20.04,16.48 19.76,15.04 19.48,13.56C19.36,12.92 18.48,9.48 18.48,9.24C18.48,8.96 20.2,7.96 20.52,7.72C23.12,5.56 25.04,2.56 25.04,-1C25.04,-6 21.4,-10.48 16.48,-10.48C15.6,-10.48 14.24,-10.24 13.4,-9.92C13.2,-9.96 12.08,-13.96 12.08,-14.4" style="fill-rule:nonzero;"/>
        </g>
        <g transform="matrix(0.5,0,0,0.5,91.018799,142.044443)">
            <path d="M9.56,3.24C9.56,2.2 9.44,1.64 9.12,1.48L7.8,1.92L7.76,1.92C7.72,1.96 7.68,2 7.68,2.04L7.68,-4.2L7.76,-4.28L7.72,-4.2C8.68,-4.56 9.2,-4.8 9.4,-5C9.52,-5.16 9.56,-6.16 9.56,-7.2C9.56,-8.32 9.44,-8.92 9.24,-8.96L9.2,-8.96L7.88,-8.52C7.76,-8.52 7.68,-8.48 7.68,-8.36L7.68,-15.4C7.68,-15.88 7.32,-15.84 6.84,-15.84C6.4,-15.84 6.16,-15.88 6.16,-15.4L6.16,-7.96L6.04,-7.84L6.08,-7.96L3.48,-6.84L3.4,-6.84C3.36,-6.84 3.32,-6.8 3.32,-6.72L3.32,-13.8C3.32,-14.28 3.08,-14.24 2.6,-14.24C2.12,-14.24 1.84,-14.28 1.84,-13.8L1.84,-6.28L1.72,-6.16L1.76,-6.28C0.92,-5.92 0.48,-5.76 0.36,-5.64C0.12,-5.36 0,-4.28 0,-3.36C0,-2.32 0.12,-1.68 0.36,-1.56C0.36,-1.52 0.4,-1.48 0.44,-1.48C0.48,-1.48 0.52,-1.52 0.52,-1.56L0.52,-1.52L1.6,-1.96C1.72,-1.96 1.84,-2 1.84,-2.12L1.84,4.16L1.72,4.28L1.76,4.16C0.92,4.48 0.48,4.68 0.36,4.8C0.12,5.08 0,5.72 0,6.68C0,7.72 0.12,8.72 0.36,8.88C0.36,8.92 0.4,8.96 0.44,8.96C0.48,8.96 0.52,8.92 0.52,8.88L0.52,8.92L1.6,8.48C1.72,8.48 1.84,8.44 1.84,8.32L1.84,15.6C1.84,16.04 2.12,16 2.64,16C3.08,16 3.32,16.04 3.32,15.6L3.32,7.92L3.44,7.8L3.4,7.92L6,6.8L6.08,6.8C6.12,6.8 6.16,6.76 6.16,6.68L6.16,13.88C6.16,14.24 6.4,14.24 6.88,14.24C7.36,14.24 7.68,14.24 7.68,13.88L7.68,6.24L7.76,6.12L7.72,6.24C8.64,5.88 9.16,5.64 9.36,5.44C9.48,5.28 9.56,4.28 9.56,3.24M6.16,2.48L6.04,2.6L6.08,2.48L3.48,3.6L3.4,3.6C3.36,3.6 3.32,3.64 3.32,3.72L3.32,-2.48L3.44,-2.6L3.4,-2.48L6,-3.64L6.08,-3.64C6.12,-3.64 6.16,-3.68 6.16,-3.76L6.16,2.48" style="fill-rule:nonzero;"/>
        </g>
        <g transform="matrix(0.5,0,0,0.5,240.872199,181.876443)">
            <text x="0px" y="0px" style="font-family:'Fraunces', Georgia, serif;font-size:20px;font-weight:700;">3</text>
        </g>
        <g transform="matrix(0.5,0,0,0.5,100.631199,151.089443)">
            <text x="0px" y="0px" style="font-family:'Fraunces', Georgia, serif;font-size:24px;font-weight:700;">5</text>
        </g>
        <g transform="matrix(0.5,0,0,0.5,100.533199,161.245443)">
            <text x="0px" y="0px" style="font-family:'Fraunces', Georgia, serif;font-size:24px;font-weight:700;">4</text>
        </g>
        <g transform="matrix(1,0,0,1,-0.696801,0.044443)">
            <path d="M231.989,164.428L231.989,161.84L257.517,169.28L257.517,171.868L231.989,164.428" style="fill-rule:nonzero;"/>
        </g>
        <g transform="matrix(0.5,0,0,0.5,154.990199,119.203)">
            <g transform="matrix(1,0,0,1,0,17.5938)">
                <text x="0px" y="0px" style="font-family:'Fraunces', Georgia, serif;font-size:21.824px;">-</text>
            </g>
        </g>
        <g transform="matrix(0.5,0,0,0.5,176.114199,119.203)">
            <g transform="matrix(1,0,0,1,0,17.5938)">
                <text x="0px" y="0px" style="font-family:'Fraunces', Georgia, serif;font-size:21.824px;">-</text>
            </g>
        </g>
        <g transform="matrix(0.5,0,0,0.5,197.353199,119.203)">
            <g transform="matrix(1,0,0,1,0,17.5938)">
                <text x="0px" y="0px" style="font-family:'Fraunces', Georgia, serif;font-size:21.824px;">-</text>
            </g>
        </g>
        <g transform="matrix(0.5,0,0,0.5,226.649199,119.203)">
            <g transform="matrix(1,0,0,1,0,17.5938)">
                <text x="0px" y="0px" style="font-family:'Fraunces', Georgia, serif;font-size:21.824px;">-</text>
            </g>
        </g>
        <g transform="matrix(0.5,0,0,0.5,141.001199,119.203)">
            <g transform="matrix(1,0,0,1,0,17.5938)">
                <text x="0px" y="0px" style="font-family:'Fraunces', Georgia, serif;font-size:21.824px;">H</text>
            </g>
        </g>
        <g transform="matrix(0.5,0,0,0.5,163.378199,119.203)">
            <g transform="matrix(1,0,0,1,0,17.5938)">
                <text x="0px" y="0px" style="font-family:'Fraunces', Georgia, serif;font-size:21.824px;">A</text>
            </g>
        </g>
        <g transform="matrix(0.5,0,0,0.5,184.866199,119.203)">
            <g transform="matrix(1,0,0,1,0,17.5938)">
                <text x="0px" y="0px" style="font-family:'Fraunces', Georgia, serif;font-size:21.824px;">C</text>
            </g>
        </g>
        <g transform="matrix(0.5,0,0,0.5,205.693199,119.203)">
            <g transform="matrix(1,0,0,1,0,17.5938)">
                <text x="0px" y="0px" style="font-family:'Fraunces', Georgia, serif;font-size:21.824px;">H</text>
            </g>
        </g>
        <g transform="matrix(0.5,0,0,0.5,237.003199,119.203)">
            <g transform="matrix(1,0,0,1,0,17.5938)">
                <text x="0px" y="0px" style="font-family:'Fraunces', Georgia, serif;font-size:21.824px;">Em</text>
            </g>
        </g>
    </g>
</svg>
