<?xml version="1.0" encoding="UTF-8" standalone="no"?>
<!DOCTYPE svg PUBLIC "-//W3C//DTD SVG 1.1//EN" "http://www.w3.org/Graphics/SVG/1.1/DTD/svg11.dtd">
<svg width="100%" height="100%" viewBox="0 0 1885 1242" version="1.1" xmlns="http://www.w3.org/2000/svg" xmlns:xlink="http://www.w3.org/1999/xlink" xml:space="preserve" xmlns:serif="http://www.serif.com/" style="fill-rule:evenodd;clip-rule:evenodd;stroke-miterlimit:2;">
    <g id="Artboard1" transform="matrix(0.768134,0,0,0.771908,-6.913203,-231.572405)">
        <rect x="9" y="300" width="2454" height="1609" style="fill:none;"/>
        <clipPath id="_clip1">
            <rect x="9" y="300" width="2454" height="1609"/>
        </clipPath>
        <g clip-path="url(#_clip1)">
            <g transform="matrix(-0.009406,-0.323738,0.325328,-0.00936,-772.842622,1209.127087)">
                <path d="M1819.664,2576.507C1770.683,2625.848 1768.804,2690.843 1814.853,2742.932L1819.664,2739.129C1786.788,2691.363 1788.667,2626.368 1824.248,2580.581L1819.664,2576.507Z" style="fill-rule:nonzero;"/>
            </g>
            <g transform="matrix(-0.001779,-0.323868,0.325459,-0.00177,1124.885945,3017.25302)">
                <path d="M7584.221,2038.126C7493.988,2247.3 7490.569,2872.83 7578.509,3082.978L7584.221,3080.743C7508.559,2872.928 7511.979,2247.399 7589.907,2040.423L7584.221,2038.126Z" style="fill-rule:nonzero;"/>
            </g>
            <g transform="matrix(-0.009406,-0.323738,0.325328,-0.00936,-930.99697,1371.124079)">
                <path d="M1772.036,3065.209C1804.912,3112.976 1803.033,3177.97 1767.452,3223.757L1772.036,3227.832C1821.017,3178.49 1822.896,3113.496 1776.848,3061.406L1772.036,3065.209Z" style="fill-rule:nonzero;"/>
            </g>
            <g transform="matrix(-0.009406,-0.323738,0.325328,-0.00936,-1198.473549,1645.099634)">
                <path d="M1819.664,3884.819C1770.683,3934.16 1768.804,3999.155 1814.853,4051.244L1819.664,4047.441C1786.788,3999.675 1788.667,3934.68 1824.248,3888.894L1819.664,3884.819Z" style="fill-rule:nonzero;"/>
            </g>
            <g transform="matrix(-0.00191,-0.323867,0.325459,-0.0019,-891.263784,2369.226668)">
                <path d="M3488.362,4151.391C3401.895,4357.783 3398.585,4921.918 3482.624,5129.31L3488.362,5127.142C3416.576,4922.023 3419.886,4357.888 3494.074,4153.625L3488.362,4151.391Z" style="fill-rule:nonzero;"/>
            </g>
            <g transform="matrix(-0.00977,-0.323727,0.325318,-0.009723,-1788.325953,2253.333127)">
                <path d="M1776.626,5702.604C1804.243,5751.554 1802.247,5818.03 1771.741,5865.235L1776.626,5868.944C1820.23,5818.57 1822.226,5752.094 1781.724,5699.194L1776.626,5702.604Z" style="fill-rule:nonzero;"/>
            </g>
            <g transform="matrix(-0.001779,-0.323868,0.325459,-0.00177,3.24617,4139.526146)">
                <path d="M7584.221,5484.454C7493.988,5693.629 7490.569,6319.158 7578.509,6529.307L7584.221,6527.071C7508.559,6319.256 7511.979,5693.727 7589.907,5486.752L7584.221,5484.454Z" style="fill-rule:nonzero;"/>
            </g>
            <g transform="matrix(0.325464,0,0,-0.323873,-509.138992,1101.045301)">
                <path d="M7148.712,2103.573L9144.186,2154.1L9144.186,2144.286L7342.577,2098.667L9144.186,2053.047L9144.186,2043.234L7148.712,2093.76" style="fill-rule:nonzero;"/>
            </g>
            <g transform="matrix(0.325464,0,0,-0.323873,-509.138992,1498.329236)">
                <path d="M7148.712,2716.907L9144.186,2767.433L9144.186,2757.62L7342.577,2712L9144.186,2666.38L9144.186,2656.567L7148.712,2707.093" style="fill-rule:nonzero;"/>
            </g>
            <g transform="matrix(0.325421,-0.005278,0.005304,0.32383,-534.150935,-243.351497)">
                <rect x="1714.508" y="4733.578" width="2179.57" height="9.812"/>
            </g>
            <g transform="matrix(0.325421,0.005278,-0.005304,0.32383,-483.535728,-272.951423)">
                <rect x="1714.348" y="4799.359" width="2179.89" height="9.812"/>
            </g>
            <g transform="matrix(0.325464,0,0,-0.323873,-509.138992,2832.279943)">
                <path d="M4687.085,4776.281L3955.346,4814.554L3955.346,4804.741L4593.105,4771.374L3955.346,4738.008L3955.346,4728.194L4687.085,4766.468" style="fill-rule:nonzero;"/>
            </g>
            <g transform="matrix(0.325464,0,0,-0.323873,-509.138992,2832.279943)">
                <path d="M4835.065,4776.281L6918.303,4827.188L6918.303,4817.374L5035.939,4771.374L6918.303,4725.374L6918.303,4715.561L4835.065,4766.468" style="fill-rule:nonzero;"/>
            </g>
            <g transform="matrix(0.325464,0,0,-0.323873,-509.138992,3354.51657)">
                <path d="M2918.279,5582.518L6830.807,5633.425L6830.807,5623.612L3295.432,5577.612L6830.807,5531.612L6830.807,5521.798L2918.279,5572.705" style="fill-rule:nonzero;"/>
            </g>
            <g transform="matrix(0.325464,0,0,-0.323873,-509.138992,3354.51657)">
                <path d="M8677.662,5582.518L7111.016,5628.879L7111.016,5619.066L8511.758,5577.612L7111.016,5536.157L7111.016,5526.344L8677.662,5572.705" style="fill-rule:nonzero;"/>
            </g>
            <g transform="matrix(0.325464,0,0,-0.323873,-509.138992,3782.594719)">
                <path d="M2918.279,6243.392L6830.807,6294.299L6830.807,6284.486L3295.432,6238.486L6830.807,6192.486L6830.807,6182.672L2918.279,6233.579" style="fill-rule:nonzero;"/>
            </g>
            <g transform="matrix(5.424403,0,0,-5.39788,-3839.722405,4015.996513)">
                <path d="M701.899,395.929L1166,395.929" style="fill:none;fill-rule:nonzero;stroke:black;stroke-width:0.48px;"/>
            </g>
            <g transform="matrix(5.424403,0,0,-5.39788,-3839.722405,3936.539726)">
                <path d="M701.899,388.569L1166,388.569" style="fill:none;fill-rule:nonzero;stroke:black;stroke-width:0.48px;"/>
            </g>
            <g transform="matrix(5.424403,0,0,-5.39788,-3839.722405,4055.724907)">
                <path d="M701.899,399.609L1166,399.609" style="fill:none;fill-rule:nonzero;stroke:black;stroke-width:0.48px;"/>
            </g>
            <g transform="matrix(5.424403,0,0,-5.39788,-3839.722405,3896.811333)">
                <path d="M701.899,384.889L1166,384.889" style="fill:none;fill-rule:nonzero;stroke:black;stroke-width:0.48px;"/>
            </g>
            <g transform="matrix(5.424403,0,0,-5.39788,-3839.722405,3512.167073)">
                <path d="M701.899,349.26L1166,349.26" style="fill:none;fill-rule:nonzero;stroke:black;stroke-width:0.48px;"/>
            </g>
            <g transform="matrix(5.424403,0,0,-5.39788,-3839.722405,3472.43868)">
                <path d="M701.899,345.58L1166,345.58" style="fill:none;fill-rule:nonzero;stroke:black;stroke-width:0.48px;"/>
            </g>
            <g transform="matrix(5.424403,0,0,-5.39788,-3839.722405,3976.26812)">
                <path d="M701.899,392.249L1166,392.249" style="fill:none;fill-rule:nonzero;stroke:black;stroke-width:0.48px;"/>
            </g>
            <g transform="matrix(5.424403,0,0,-5.39788,-3839.722405,3234.068319)">
                <path d="M701.899,323.5L1166,323.5" style="fill:none;fill-rule:nonzero;stroke:black;stroke-width:0.48px;"/>
            </g>
            <g transform="matrix(5.424403,0,0,-5.39788,-3839.722405,3194.339925)">
                <path d="M701.899,319.82L1166,319.82" style="fill:none;fill-rule:nonzero;stroke:black;stroke-width:0.48px;"/>
            </g>
            <g transform="matrix(5.424403,0,0,-5.39788,-3839.722405,3154.611532)">
                <path d="M701.899,316.14L1166,316.14" style="fill:none;fill-rule:nonzero;stroke:black;stroke-width:0.48px;"/>
            </g>
            <g transform="matrix(5.424403,0,0,-5.39788,-3839.722405,3114.883138)">
                <path d="M701.899,312.46L1166,312.46" style="fill:none;fill-rule:nonzero;stroke:black;stroke-width:0.48px;"/>
            </g>
            <g transform="matrix(5.424403,0,0,-5.39788,-3839.722405,3075.154745)">
                <path d="M701.899,308.78L1166,308.78" style="fill:none;fill-rule:nonzero;stroke:black;stroke-width:0.48px;"/>
            </g>
            <g transform="matrix(5.424403,0,0,-5.39788,-3839.722405,2689.850605)">
                <path d="M701.899,273.089L1166,273.089" style="fill:none;fill-rule:nonzero;stroke:black;stroke-width:0.48px;"/>
            </g>
            <g transform="matrix(5.424403,0,0,-5.39788,-3839.722405,1747.274379)">
                <path d="M701.899,185.78L1166,185.78" style="fill:none;fill-rule:nonzero;stroke:black;stroke-width:0.48px;"/>
            </g>
            <g transform="matrix(5.424403,0,0,-5.39788,-3839.722405,2610.393818)">
                <path d="M701.899,265.729L1166,265.729" style="fill:none;fill-rule:nonzero;stroke:black;stroke-width:0.48px;"/>
            </g>
            <g transform="matrix(5.424403,0,0,-5.39788,-3839.722405,2570.665424)">
                <path d="M701.899,262.049L1166,262.049" style="fill:none;fill-rule:nonzero;stroke:black;stroke-width:0.48px;"/>
            </g>
            <g transform="matrix(5.424403,0,0,-5.39788,-3839.722405,3551.895467)">
                <path d="M701.899,352.94L1166,352.94" style="fill:none;fill-rule:nonzero;stroke:black;stroke-width:0.48px;"/>
            </g>
            <g transform="matrix(5.424403,0,0,-5.39788,-3839.722405,2263.743494)">
                <path d="M701.899,233.62L1166,233.62" style="fill:none;fill-rule:nonzero;stroke:black;stroke-width:0.48px;"/>
            </g>
            <g transform="matrix(5.424403,0,0,-5.39788,-3839.722405,3631.352253)">
                <path d="M701.899,360.3L1166,360.3" style="fill:none;fill-rule:nonzero;stroke:black;stroke-width:0.48px;"/>
            </g>
            <g transform="matrix(5.424403,0,0,-5.39788,-3839.722405,2224.015101)">
                <path d="M701.899,229.94L1166,229.94" style="fill:none;fill-rule:nonzero;stroke:black;stroke-width:0.48px;"/>
            </g>
            <g transform="matrix(5.424403,0,0,-5.39788,-3839.722405,2184.286707)">
                <path d="M701.899,226.26L1166,226.26" style="fill:none;fill-rule:nonzero;stroke:black;stroke-width:0.48px;"/>
            </g>
            <g transform="matrix(5.424403,0,0,-5.39788,-3839.722405,1866.459559)">
                <path d="M701.899,196.82L1166,196.82" style="fill:none;fill-rule:nonzero;stroke:black;stroke-width:0.48px;"/>
            </g>
            <g transform="matrix(5.424403,0,0,-5.39788,-3839.722405,2650.122211)">
                <path d="M701.899,269.409L1166,269.409" style="fill:none;fill-rule:nonzero;stroke:black;stroke-width:0.48px;"/>
            </g>
            <g transform="matrix(5.424403,0,0,-5.39788,-3839.722405,1906.187953)">
                <path d="M701.899,200.5L1166,200.5" style="fill:none;fill-rule:nonzero;stroke:black;stroke-width:0.48px;"/>
            </g>
            <g transform="matrix(5.424403,0,0,-5.39788,-3839.722405,1787.002772)">
                <path d="M701.899,189.46L1166,189.46" style="fill:none;fill-rule:nonzero;stroke:black;stroke-width:0.48px;"/>
            </g>
            <g transform="matrix(5.424403,0,0,-5.39788,-3839.722405,2303.471887)">
                <path d="M701.899,237.3L1166,237.3" style="fill:none;fill-rule:nonzero;stroke:black;stroke-width:0.48px;"/>
            </g>
            <g transform="matrix(5.424403,0,0,-5.39788,-3839.722405,1279.823073)">
                <path d="M701.899,142.48L1166,142.48" style="fill:none;fill-rule:nonzero;stroke:black;stroke-width:0.48px;"/>
            </g>
            <g transform="matrix(5.424403,0,0,-5.39788,-3839.722405,1240.09468)">
                <path d="M701.899,138.8L1166,138.8" style="fill:none;fill-rule:nonzero;stroke:black;stroke-width:0.48px;"/>
            </g>
            <g transform="matrix(5.424403,0,0,-5.39788,-3839.722405,1001.724308)">
                <path d="M701.899,116.72L1166,116.72" style="fill:none;fill-rule:nonzero;stroke:black;stroke-width:0.48px;"/>
            </g>
            <g transform="matrix(5.424403,0,0,-5.39788,-3839.722405,2729.578998)">
                <path d="M701.899,276.769L1166,276.769" style="fill:none;fill-rule:nonzero;stroke:black;stroke-width:0.48px;"/>
            </g>
            <g transform="matrix(5.424403,0,0,-5.39788,-3839.722405,961.995925)">
                <path d="M701.899,113.04L1166,113.04" style="fill:none;fill-rule:nonzero;stroke:black;stroke-width:0.48px;"/>
            </g>
            <g transform="matrix(5.424403,0,0,-5.39788,-3839.722405,882.539138)">
                <path d="M701.899,105.68L1166,105.68" style="fill:none;fill-rule:nonzero;stroke:black;stroke-width:0.48px;"/>
            </g>
            <g transform="matrix(5.424403,0,0,-5.39788,-3839.722405,1826.731166)">
                <path d="M701.899,193.14L1166,193.14" style="fill:none;fill-rule:nonzero;stroke:black;stroke-width:0.48px;"/>
            </g>
            <g transform="matrix(5.424403,0,0,-5.39788,-3839.722405,2144.558314)">
                <path d="M701.899,222.58L1166,222.58" style="fill:none;fill-rule:nonzero;stroke:black;stroke-width:0.48px;"/>
            </g>
            <g transform="matrix(5.424403,0,0,-5.39788,-3839.722405,1399.008254)">
                <path d="M701.899,153.52L1166,153.52" style="fill:none;fill-rule:nonzero;stroke:black;stroke-width:0.48px;"/>
            </g>
            <g transform="matrix(5.424403,0,0,-5.39788,-3839.722405,1359.27986)">
                <path d="M701.899,149.84L1166,149.84" style="fill:none;fill-rule:nonzero;stroke:black;stroke-width:0.48px;"/>
            </g>
            <g transform="matrix(5.424403,0,0,-5.39788,-3839.722405,1319.551456)">
                <path d="M701.899,146.16L1166,146.16" style="fill:none;fill-rule:nonzero;stroke:black;stroke-width:0.48px;"/>
            </g>
            <g transform="matrix(5.424403,0,0,-5.39788,-3839.722405,3591.62386)">
                <path d="M701.899,356.62L1166,356.62" style="fill:none;fill-rule:nonzero;stroke:black;stroke-width:0.48px;"/>
            </g>
            <g transform="matrix(5.424403,0,0,-5.39788,-3839.722405,922.267521)">
                <path d="M701.899,109.36L1166,109.36" style="fill:none;fill-rule:nonzero;stroke:black;stroke-width:0.48px;"/>
            </g>
            <g transform="matrix(0,5.39788,-5.424403,0,1758.238879,-3121.321402)">
                <path d="M632.148,250.804L930.235,250.804" style="fill:none;fill-rule:nonzero;stroke:black;stroke-width:0.59px;"/>
            </g>
            <g transform="matrix(0,5.39788,-5.424403,0,2075.805522,-3437.335256)">
                <path d="M690.692,250.804L988.779,250.804" style="fill:none;fill-rule:nonzero;stroke:black;stroke-width:0.59px;"/>
            </g>
            <g transform="matrix(0,5.39788,-5.424403,0,2393.37216,-3753.349105)">
                <path d="M749.236,250.804L1047.323,250.804" style="fill:none;fill-rule:nonzero;stroke:black;stroke-width:0.59px;"/>
            </g>
            <g transform="matrix(0,5.39788,-5.424403,0,2714.658176,-4073.064145)">
                <path d="M808.466,250.804L1106.553,250.804" style="fill:none;fill-rule:nonzero;stroke:black;stroke-width:0.59px;"/>
            </g>
            <g transform="matrix(0,5.39788,-5.424403,0,3091.076797,-4447.642212)">
                <path d="M877.859,250.804L1175.946,250.804" style="fill:none;fill-rule:nonzero;stroke:black;stroke-width:0.59px;"/>
            </g>
            <g transform="matrix(0,5.39788,-5.424403,0,3430.406292,-4785.312505)">
                <path d="M940.415,250.804L1238.503,250.804" style="fill:none;fill-rule:nonzero;stroke:black;stroke-width:0.59px;"/>
            </g>
            <g transform="matrix(-0.06516,-0.317316,0.318875,-0.064841,146.442812,3278.323762)">
                <path d="M5494.739,4546.853C5440.119,4578.117 5442.03,4710.875 5497.533,4740.572L5494.739,4746.032C5424.041,4711.134 5422.13,4578.377 5491.789,4541.475L5494.739,4546.853Z" style="fill-rule:nonzero;"/>
            </g>
            <g transform="matrix(-0.021336,-0.323176,0.324764,-0.021232,314.050819,3311.441632)">
                <path d="M6378.909,4028.886C6480.403,4127.873 6483.326,4518.357 6383.362,4618.933L6378.909,4614.715C6465.336,4518.493 6462.412,4128.008 6374.522,4033.173L6378.909,4028.886Z" style="fill-rule:nonzero;"/>
            </g>
            <g transform="matrix(-0.026715,-0.32278,0.324366,-0.026585,-701.392506,3097.864847)">
                <path d="M4513.847,5361.266C4452.258,5391.877 4453.99,5522.342 4516.375,5551.376L4513.847,5556.965C4436.001,5522.581 4434.269,5392.116 4511.177,5355.744L4513.847,5361.266Z" style="fill-rule:nonzero;"/>
            </g>
            <g transform="matrix(0.034883,-0.322007,0.323589,0.034713,-692.807229,3083.924078)">
                <path d="M5506.066,5374.768C5434.01,5405.326 5435.547,5535.599 5508.307,5564.495L5506.066,5570.204C5417.557,5535.812 5416.02,5405.538 5503.694,5369.112L5506.066,5374.768Z" style="fill-rule:nonzero;"/>
            </g>
            <g transform="matrix(-0.026309,-0.322813,0.324399,-0.026181,-1113.668412,3538.541818)">
                <path d="M4510.135,6625.588C4455.854,6656.219 4457.749,6786.682 4512.903,6815.816L4510.135,6821.289C4439.76,6786.943 4437.865,6656.48 4507.216,6620.194L4510.135,6625.588Z" style="fill-rule:nonzero;"/>
            </g>
            <g transform="matrix(-0.06516,-0.317316,0.318875,-0.064841,-506.397858,4074.147137)">
                <path d="M5494.739,6594.178C5440.119,6625.442 5442.03,6758.2 5497.533,6787.897L5494.739,6793.357C5424.041,6758.46 5422.13,6625.702 5491.789,6588.801L5494.739,6594.178Z" style="fill-rule:nonzero;"/>
            </g>
            <g transform="matrix(0,5.39788,-5.424403,0,691.221241,-3573.212396)">
                <path d="M718.569,110.593L730.823,110.593" style="fill:none;fill-rule:nonzero;stroke:black;stroke-width:0.44px;"/>
            </g>
            <g transform="matrix(0,5.39788,-5.424403,0,2363.802904,-5236.622515)">
                <path d="M1026.913,110.685L1038.983,110.685" style="fill:none;fill-rule:nonzero;stroke:black;stroke-width:0.44px;"/>
            </g>
            <g transform="matrix(0,5.39788,-5.424403,0,2703.132399,-5574.292808)">
                <path d="M1089.469,110.685L1101.539,110.685" style="fill:none;fill-rule:nonzero;stroke:black;stroke-width:0.44px;"/>
            </g>
            <g transform="matrix(0,5.39788,-5.424403,0,918.082181,-3389.165683)">
                <path d="M722.487,148.552L734.631,148.552" style="fill:none;fill-rule:nonzero;stroke:black;stroke-width:0.44px;"/>
            </g>
            <g transform="matrix(0,5.39788,-5.424403,0,2554.752743,-5093.118802)">
                <path d="M1031.718,141.578L1042.795,141.578" style="fill:none;fill-rule:nonzero;stroke:black;stroke-width:0.44px;"/>
            </g>
            <g transform="matrix(0,5.39788,-5.424403,0,2894.082237,-5430.789095)">
                <path d="M1094.274,141.578L1105.351,141.578" style="fill:none;fill-rule:nonzero;stroke:black;stroke-width:0.44px;"/>
            </g>
            <g transform="matrix(0,5.39788,-5.424403,0,1171.875049,-3094.908816)">
                <path d="M719.259,199.202L730.133,199.202" style="fill:none;fill-rule:nonzero;stroke:black;stroke-width:0.44px;"/>
            </g>
            <g transform="matrix(0,5.39788,-5.424403,0,2835.224379,-4767.506126)">
                <path d="M1027.281,197.592L1038.615,197.592" style="fill:none;fill-rule:nonzero;stroke:black;stroke-width:0.44px;"/>
            </g>
            <g transform="matrix(0,5.39788,-5.424403,0,2997.026996,-4911.136413)">
                <path d="M1055.729,199.202L1066.604,199.202" style="fill:none;fill-rule:nonzero;stroke:black;stroke-width:0.44px;"/>
            </g>
            <g transform="matrix(0,5.39788,-5.424403,0,3146.88641,-5174.413586)">
                <path d="M1093.752,188.629L1104.982,188.629" style="fill:none;fill-rule:nonzero;stroke:black;stroke-width:0.44px;"/>
            </g>
            <g transform="matrix(0,5.39788,-5.424403,0,3202.815151,-5244.967003)">
                <path d="M1105.903,187.249L1116.213,187.249" style="fill:none;fill-rule:nonzero;stroke:black;stroke-width:0.44px;"/>
            </g>
            <g transform="matrix(0,5.39788,-5.424403,0,3301.398136,-5231.36975)">
                <path d="M1113.215,197.595L1124.555,197.595" style="fill:none;fill-rule:nonzero;stroke:black;stroke-width:0.44px;"/>
            </g>
            <g transform="matrix(0,5.39788,-5.424403,0,3357.326877,-5301.923166)">
                <path d="M1124.446,196.215L1136.706,196.215" style="fill:none;fill-rule:nonzero;stroke:black;stroke-width:0.44px;"/>
            </g>
            <g transform="matrix(0,5.39788,-5.424403,0,3413.482282,-5372.251135)">
                <path d="M1135.635,194.877L1148.898,194.877" style="fill:none;fill-rule:nonzero;stroke:black;stroke-width:0.44px;"/>
            </g>
            <g transform="matrix(0,5.39788,-5.424403,0,3506.75462,-5405.474813)">
                <path d="M1149.15,200.397L1158.733,200.397" style="fill:none;fill-rule:nonzero;stroke:black;stroke-width:0.44px;"/>
            </g>
            <g transform="matrix(0,5.39788,-5.424403,0,1343.841029,-2965.488646)">
                <path d="M722.717,227.042L734.401,227.042" style="fill:none;fill-rule:nonzero;stroke:black;stroke-width:0.44px;"/>
            </g>
            <g transform="matrix(0,5.39788,-5.424403,0,3346.504439,-4975.771619)">
                <path d="M1093.752,225.429L1104.982,225.429" style="fill:none;fill-rule:nonzero;stroke:black;stroke-width:0.44px;"/>
            </g>
            <g transform="matrix(0,5.39788,-5.424403,0,3402.43318,-5046.325035)">
                <path d="M1105.903,224.049L1116.213,224.049" style="fill:none;fill-rule:nonzero;stroke:black;stroke-width:0.44px;"/>
            </g>
            <g transform="matrix(0,5.39788,-5.424403,0,3501.016166,-5032.727782)">
                <path d="M1113.215,234.395L1124.555,234.395" style="fill:none;fill-rule:nonzero;stroke:black;stroke-width:0.44px;"/>
            </g>
            <g transform="matrix(0,5.39788,-5.424403,0,3556.944906,-5103.281199)">
                <path d="M1124.446,233.015L1136.706,233.015" style="fill:none;fill-rule:nonzero;stroke:black;stroke-width:0.44px;"/>
            </g>
            <g transform="matrix(0,5.39788,-5.424403,0,3613.100311,-5173.609167)">
                <path d="M1135.635,231.677L1148.898,231.677" style="fill:none;fill-rule:nonzero;stroke:black;stroke-width:0.44px;"/>
            </g>
            <g transform="matrix(0,5.39788,-5.424403,0,3706.372649,-5206.832846)">
                <path d="M1149.15,237.197L1158.733,237.197" style="fill:none;fill-rule:nonzero;stroke:black;stroke-width:0.44px;"/>
            </g>
            <g transform="matrix(0,5.39788,-5.424403,0,1586.636552,-2723.880308)">
                <path d="M722.487,271.801L734.631,271.801" style="fill:none;fill-rule:nonzero;stroke:black;stroke-width:0.44px;"/>
            </g>
            <g transform="matrix(0,5.39788,-5.424403,0,1674.914826,-2903.598842)">
                <path d="M747.961,263.291L758.725,263.291" style="fill:none;fill-rule:nonzero;stroke:black;stroke-width:0.44px;"/>
            </g>
            <g transform="matrix(0,5.39788,-5.424403,0,1910.490322,-3104.054681)">
                <path d="M787.858,266.438L799.394,266.438" style="fill:none;fill-rule:nonzero;stroke:black;stroke-width:0.44px;"/>
            </g>
            <g transform="matrix(0,5.39788,-5.424403,0,2228.056965,-3420.068535)">
                <path d="M846.402,266.438L857.938,266.438" style="fill:none;fill-rule:nonzero;stroke:black;stroke-width:0.44px;"/>
            </g>
            <g transform="matrix(0,5.39788,-5.424403,0,2525.602473,-3733.540323)">
                <path d="M903.095,264.828L914.172,264.828" style="fill:none;fill-rule:nonzero;stroke:black;stroke-width:0.44px;"/>
            </g>
            <g transform="matrix(0,5.39788,-5.424403,0,2692.407437,-3883.867743)">
                <path d="M931.858,266.279L944.008,266.279" style="fill:none;fill-rule:nonzero;stroke:black;stroke-width:0.44px;"/>
            </g>
            <g transform="matrix(0,5.39788,-5.424403,0,2748.251433,-3954.336829)">
                <path d="M943.993,264.899L955.223,264.899" style="fill:none;fill-rule:nonzero;stroke:black;stroke-width:0.44px;"/>
            </g>
            <g transform="matrix(0,5.39788,-5.424403,0,2881.257506,-3972.541949)">
                <path d="M958.117,275.472L968.992,275.472" style="fill:none;fill-rule:nonzero;stroke:black;stroke-width:0.44px;"/>
            </g>
            <g transform="matrix(0,5.39788,-5.424403,0,2962.194567,-4070.433639)">
                <path d="M974.412,273.865L985.753,273.865" style="fill:none;fill-rule:nonzero;stroke:black;stroke-width:0.44px;"/>
            </g>
            <g transform="matrix(0,5.39788,-5.424403,0,3033.009914,-4126.004577)">
                <path d="M986.547,275.245L996.968,275.245" style="fill:none;fill-rule:nonzero;stroke:black;stroke-width:0.44px;"/>
            </g>
            <g transform="matrix(0,5.39788,-5.424403,0,3088.938598,-4196.558018)">
                <path d="M997.778,273.865L1009.118,273.865" style="fill:none;fill-rule:nonzero;stroke:black;stroke-width:0.44px;"/>
            </g>
            <g transform="matrix(0,5.39788,-5.424403,0,3144.867339,-4267.111434)">
                <path d="M1009.009,272.485L1021.269,272.485" style="fill:none;fill-rule:nonzero;stroke:black;stroke-width:0.44px;"/>
            </g>
            <g transform="matrix(0,5.39788,-5.424403,0,3231.476261,-4373.191775)">
                <path d="M1026.821,270.642L1039.075,270.642" style="fill:none;fill-rule:nonzero;stroke:black;stroke-width:0.44px;"/>
            </g>
            <g transform="matrix(0,5.39788,-5.424403,0,3329.794596,-4453.787245)">
                <path d="M1043.592,272.239L1055.36,272.239" style="fill:none;fill-rule:nonzero;stroke:black;stroke-width:0.44px;"/>
            </g>
            <g transform="matrix(0,5.39788,-5.424403,0,3402.012168,-4508.131477)">
                <path d="M1055.499,273.862L1066.834,273.862" style="fill:none;fill-rule:nonzero;stroke:black;stroke-width:0.44px;"/>
            </g>
            <g transform="matrix(0,5.39788,-5.424403,0,3502.825727,-4586.243922)">
                <path d="M1071.81,275.919L1083.579,275.919" style="fill:none;fill-rule:nonzero;stroke:black;stroke-width:0.44px;"/>
            </g>
            <g transform="matrix(0,5.39788,-5.424403,0,3560.6203,-4762.702709)">
                <path d="M1093.755,264.901L1104.979,264.901" style="fill:none;fill-rule:nonzero;stroke:black;stroke-width:0.44px;"/>
            </g>
            <g transform="matrix(0,5.39788,-5.424403,0,3751.068105,-4910.107194)">
                <path d="M1124.449,268.802L1136.703,268.802" style="fill:none;fill-rule:nonzero;stroke:black;stroke-width:0.44px;"/>
            </g>
            <g transform="matrix(0,5.39788,-5.424403,0,1813.441889,-2502.99146)">
                <path d="M723.236,313.168L734.773,313.168" style="fill:none;fill-rule:nonzero;stroke:black;stroke-width:0.44px;"/>
            </g>
            <g transform="matrix(0,5.39788,-5.424403,0,1989.402963,-2679.780603)">
                <path d="M755.528,313.012L767.672,313.012" style="fill:none;fill-rule:nonzero;stroke:black;stroke-width:0.44px;"/>
            </g>
            <g transform="matrix(0,5.39788,-5.424403,0,2052.817391,-2742.884957)">
                <path d="M767.218,313.012L779.362,313.012" style="fill:none;fill-rule:nonzero;stroke:black;stroke-width:0.44px;"/>
            </g>
            <g transform="matrix(0,5.39788,-5.424403,0,2182.68862,-2833.187336)">
                <path d="M787.628,316.618L799.624,316.618" style="fill:none;fill-rule:nonzero;stroke:black;stroke-width:0.44px;"/>
            </g>
            <g transform="matrix(0,5.39788,-5.424403,0,2326.931409,-2975.930261)">
                <path d="M814.072,316.692L826.216,316.692" style="fill:none;fill-rule:nonzero;stroke:black;stroke-width:0.44px;"/>
            </g>
            <g transform="matrix(0,5.39788,-5.424403,0,2390.345837,-3039.034614)">
                <path d="M825.762,316.692L837.906,316.692" style="fill:none;fill-rule:nonzero;stroke:black;stroke-width:0.44px;"/>
            </g>
            <g transform="matrix(0,5.39788,-5.424403,0,2500.255263,-3149.20119)">
                <path d="M846.172,316.618L858.168,316.618" style="fill:none;fill-rule:nonzero;stroke:black;stroke-width:0.44px;"/>
            </g>
            <g transform="matrix(0,5.39788,-5.424403,0,2634.501721,-3301.891568)">
                <path d="M872.613,314.849L884.763,314.849" style="fill:none;fill-rule:nonzero;stroke:black;stroke-width:0.44px;"/>
            </g>
            <g transform="matrix(0,5.39788,-5.424403,0,2690.430473,-3372.444995)">
                <path d="M884.764,313.469L895.993,313.469" style="fill:none;fill-rule:nonzero;stroke:black;stroke-width:0.44px;"/>
            </g>
            <g transform="matrix(0,5.39788,-5.424403,0,2806.53406,-3453.982392)">
                <path d="M902.635,316.618L914.632,316.618" style="fill:none;fill-rule:nonzero;stroke:black;stroke-width:0.44px;"/>
            </g>
            <g transform="matrix(0,5.39788,-5.424403,0,2948.386771,-3629.140058)">
                <path d="M932.318,313.469L943.548,313.469" style="fill:none;fill-rule:nonzero;stroke:black;stroke-width:0.44px;"/>
            </g>
            <g transform="matrix(0,5.39788,-5.424403,0,3019.202118,-3684.710996)">
                <path d="M943.533,314.849L955.683,314.849" style="fill:none;fill-rule:nonzero;stroke:black;stroke-width:0.44px;"/>
            </g>
            <g transform="matrix(0,5.39788,-5.424403,0,3107.089564,-3789.519086)">
                <path d="M961.576,313.242L973.26,313.242" style="fill:none;fill-rule:nonzero;stroke:black;stroke-width:0.44px;"/>
            </g>
            <g transform="matrix(0,5.39788,-5.424403,0,3268.807409,-3933.065016)">
                <path d="M989.549,314.852L1001.693,314.852" style="fill:none;fill-rule:nonzero;stroke:black;stroke-width:0.44px;"/>
            </g>
            <g transform="matrix(0,5.39788,-5.424403,0,3502.222393,-4145.474486)">
                <path d="M1030.739,316.692L1042.883,316.692" style="fill:none;fill-rule:nonzero;stroke:black;stroke-width:0.44px;"/>
            </g>
            <g transform="matrix(0,5.39788,-5.424403,0,3665.272623,-4287.863261)">
                <path d="M1058.958,318.532L1071.102,318.532" style="fill:none;fill-rule:nonzero;stroke:black;stroke-width:0.44px;"/>
            </g>
            <g transform="matrix(0,5.39788,-5.424403,0,3861.51369,-4463.280582)">
                <path d="M1093.295,320.372L1105.439,320.372" style="fill:none;fill-rule:nonzero;stroke:black;stroke-width:0.44px;"/>
            </g>
            <g transform="matrix(5.424403,0,0,-5.39788,-3839.722405,3273.796712)">
                <path d="M1093.811,327.18L1101.06,327.18" style="fill:none;fill-rule:nonzero;stroke:black;stroke-width:0.59px;"/>
            </g>
            <g transform="matrix(0,5.39788,-5.424403,0,4062.137078,-4642.264227)">
                <path d="M1128.441,322.285L1140.437,322.285" style="fill:none;fill-rule:nonzero;stroke:black;stroke-width:0.44px;"/>
            </g>
            <g transform="matrix(5.424403,0,0,-5.39788,-3839.722405,3273.796712)">
                <path d="M1128.883,327.18L1136.132,327.18" style="fill:none;fill-rule:nonzero;stroke:black;stroke-width:0.59px;"/>
            </g>
            <g transform="matrix(0,5.39788,-5.424403,0,2030.461403,-2240.520647)">
                <path d="M719.121,357.485L730.271,357.485" style="fill:none;fill-rule:nonzero;stroke:black;stroke-width:0.44px;"/>
            </g>
            <g transform="matrix(0,5.39788,-5.424403,0,2343.066518,-2627.081181)">
                <path d="M783.19,350.493L795.445,350.493" style="fill:none;fill-rule:nonzero;stroke:black;stroke-width:0.44px;"/>
            </g>
            <g transform="matrix(0,5.39788,-5.424403,0,2462.76294,-2726.328133)">
                <path d="M803.417,352.333L815.671,352.333" style="fill:none;fill-rule:nonzero;stroke:black;stroke-width:0.44px;"/>
            </g>
            <g transform="matrix(0,5.39788,-5.424403,0,2680.594964,-2923.230838)">
                <path d="M841.734,354.173L853.989,354.173" style="fill:none;fill-rule:nonzero;stroke:black;stroke-width:0.44px;"/>
            </g>
            <g transform="matrix(0,5.39788,-5.424403,0,2807.777057,-3015.028711)">
                <path d="M862.421,357.393L873.755,357.393" style="fill:none;fill-rule:nonzero;stroke:black;stroke-width:0.44px;"/>
            </g>
            <g transform="matrix(0,5.39788,-5.424403,0,2976.89286,-3237.944138)">
                <path d="M898.198,352.333L910.452,352.333" style="fill:none;fill-rule:nonzero;stroke:black;stroke-width:0.44px;"/>
            </g>
            <g transform="matrix(0,5.39788,-5.424403,0,3105.252704,-3328.570029)">
                <path d="M918.667,355.77L930.435,355.77" style="fill:none;fill-rule:nonzero;stroke:black;stroke-width:0.44px;"/>
            </g>
            <g transform="matrix(0,5.39788,-5.424403,0,3288.197974,-3567.591277)">
                <path d="M957.427,350.493L969.682,350.493" style="fill:none;fill-rule:nonzero;stroke:black;stroke-width:0.44px;"/>
            </g>
            <g transform="matrix(0,5.39788,-5.424403,0,3469.80775,-3691.342529)">
                <path d="M985.873,355.77L997.642,355.77" style="fill:none;fill-rule:nonzero;stroke:black;stroke-width:0.44px;"/>
            </g>
            <g transform="matrix(0,5.39788,-5.424403,0,3542.040735,-3745.67139)">
                <path d="M997.778,357.395L1009.118,357.395" style="fill:none;fill-rule:nonzero;stroke:black;stroke-width:0.44px;"/>
            </g>
            <g transform="matrix(0,5.39788,-5.424403,0,3612.940828,-3801.326659)">
                <path d="M1009.929,358.775L1020.349,358.775" style="fill:none;fill-rule:nonzero;stroke:black;stroke-width:0.44px;"/>
            </g>
            <g transform="matrix(0,5.39788,-5.424403,0,3676.409248,-3976.946802)">
                <path d="M1031.718,348.358L1042.795,348.358" style="fill:none;fill-rule:nonzero;stroke:black;stroke-width:0.44px;"/>
            </g>
            <g transform="matrix(0,5.39788,-5.424403,0,4015.738742,-4314.617095)">
                <path d="M1094.274,348.358L1105.351,348.358" style="fill:none;fill-rule:nonzero;stroke:black;stroke-width:0.44px;"/>
            </g>
            <g transform="matrix(0,5.39788,-5.424403,0,2226.288859,-2092.163166)">
                <path d="M723.236,389.277L734.773,389.277" style="fill:none;fill-rule:nonzero;stroke:black;stroke-width:0.44px;"/>
            </g>
            <g transform="matrix(0,5.39788,-5.424403,0,2402.249933,-2268.952309)">
                <path d="M755.528,389.121L767.672,389.121" style="fill:none;fill-rule:nonzero;stroke:black;stroke-width:0.44px;"/>
            </g>
            <g transform="matrix(0,5.39788,-5.424403,0,2465.664361,-2332.056663)">
                <path d="M767.218,389.121L779.362,389.121" style="fill:none;fill-rule:nonzero;stroke:black;stroke-width:0.44px;"/>
            </g>
            <g transform="matrix(0,5.39788,-5.424403,0,2576.8214,-2440.981726)">
                <path d="M787.858,389.277L799.394,389.277" style="fill:none;fill-rule:nonzero;stroke:black;stroke-width:0.44px;"/>
            </g>
            <g transform="matrix(0,5.39788,-5.424403,0,2719.816577,-2584.966163)">
                <path d="M814.072,389.121L826.216,389.121" style="fill:none;fill-rule:nonzero;stroke:black;stroke-width:0.44px;"/>
            </g>
            <g transform="matrix(0,5.39788,-5.424403,0,2783.231004,-2648.070517)">
                <path d="M825.762,389.121L837.906,389.121" style="fill:none;fill-rule:nonzero;stroke:black;stroke-width:0.44px;"/>
            </g>
            <g transform="matrix(0,5.39788,-5.424403,0,2894.388043,-2756.995581)">
                <path d="M846.402,389.277L857.938,389.277" style="fill:none;fill-rule:nonzero;stroke:black;stroke-width:0.44px;"/>
            </g>
            <g transform="matrix(0,5.39788,-5.424403,0,3047.348692,-2891.063274)">
                <path d="M872.613,390.958L884.763,390.958" style="fill:none;fill-rule:nonzero;stroke:black;stroke-width:0.44px;"/>
            </g>
            <g transform="matrix(0,5.39788,-5.424403,0,3103.277443,-2961.616701)">
                <path d="M884.764,389.578L895.993,389.578" style="fill:none;fill-rule:nonzero;stroke:black;stroke-width:0.44px;"/>
            </g>
            <g transform="matrix(0,5.39788,-5.424403,0,3191.933552,-3070.467368)">
                <path d="M903.095,387.667L914.172,387.667" style="fill:none;fill-rule:nonzero;stroke:black;stroke-width:0.44px;"/>
            </g>
            <g transform="matrix(0,5.39788,-5.424403,0,3358.738516,-3220.794789)">
                <path d="M931.858,389.118L944.008,389.118" style="fill:none;fill-rule:nonzero;stroke:black;stroke-width:0.44px;"/>
            </g>
            <g transform="matrix(0,5.39788,-5.424403,0,3414.582511,-3291.263874)">
                <path d="M943.993,387.738L955.223,387.738" style="fill:none;fill-rule:nonzero;stroke:black;stroke-width:0.44px;"/>
            </g>
            <g transform="matrix(0,5.39788,-5.424403,0,3504.486278,-3398.872994)">
                <path d="M962.554,386.057L973.171,386.057" style="fill:none;fill-rule:nonzero;stroke:black;stroke-width:0.44px;"/>
            </g>
            <g transform="matrix(0,5.39788,-5.424403,0,3727.360806,-3602.962459)">
                <path d="M1001.655,387.696L1012.968,387.696" style="fill:none;fill-rule:nonzero;stroke:black;stroke-width:0.44px;"/>
            </g>
            <g transform="matrix(0,5.39788,-5.424403,0,3815.727476,-3641.236555)">
                <path d="M1012.425,392.296L1025.578,392.296" style="fill:none;fill-rule:nonzero;stroke:black;stroke-width:0.44px;"/>
            </g>
            <g transform="matrix(0,5.39788,-5.424403,0,3952.018823,-3702.684861)">
                <path d="M1030.338,399.167L1044.175,399.167" style="fill:none;fill-rule:nonzero;stroke:black;stroke-width:0.44px;"/>
            </g>
            <g transform="matrix(0,5.39788,-5.424403,0,4291.348317,-4040.355154)">
                <path d="M1092.894,399.167L1106.731,399.167" style="fill:none;fill-rule:nonzero;stroke:black;stroke-width:0.44px;"/>
            </g>
            <g transform="matrix(0,-0.323873,0.325464,0,-1759.593641,2642.53888)">
                <rect x="2542.083" y="6298.38" width="30.667" height="202.203"/>
            </g>
            <g transform="matrix(0,-0.323873,0.325464,0,-1442.026998,2958.552734)">
                <rect x="3517.818" y="6298.38" width="30.667" height="202.203"/>
            </g>
            <g transform="matrix(0,-0.323873,0.325464,0,-1126.940151,3277.034259)">
                <path d="M4485.838,6305.999L4516.6,6305.999L4531.933,6508.202L4501.171,6508.202L4485.838,6305.999Z" style="fill-rule:nonzero;"/>
            </g>
            <g transform="matrix(0,-0.323873,0.325464,0,-795.630818,3586.859328)">
                <path d="M5473.131,6275.463L5503.892,6275.463L5519.226,6477.405L5488.464,6477.405L5473.131,6275.463Z" style="fill-rule:nonzero;"/>
            </g>
            <g transform="matrix(0,-0.323873,0.325464,0,-426.514257,3968.619516)">
                <path d="M6667.199,6297.638L6699.349,6297.638L6638.016,6499.841L6605.866,6499.841L6667.199,6297.638Z" style="fill-rule:nonzero;"/>
            </g>
            <g transform="matrix(0,-0.323873,0.325464,0,-336.801335,3837.640296)">
                <path d="M6580.508,5957.608L6611.27,5957.608L6595.937,6159.811L6565.175,6159.811L6580.508,5957.608Z" style="fill-rule:nonzero;"/>
            </g>
            <g transform="matrix(0.325464,0,0,-0.323873,-509.138992,3656.182507)">
                <path d="M2898.039,6020.328L3053.169,6020.328L3053.169,6030.142L2907.852,6030.142L2907.852,6066.328L2898.039,6066.328" style="fill-rule:nonzero;"/>
            </g>
            <g transform="matrix(0.325464,0,0,-0.323873,-509.138992,3656.182507)">
                <path d="M3332.035,6020.328L3192.237,6020.328L3192.237,6030.142L3322.221,6030.142L3322.221,6066.328L3332.035,6066.328" style="fill-rule:nonzero;"/>
            </g>
            <g transform="matrix(0.325464,0,0,-0.323873,-509.138992,3662.737472)">
                <path d="M3873.773,6040.568L4029.178,6020.328L4029.178,6030.23L3883.586,6049.191L3883.586,6086.568L3873.773,6086.568" style="fill-rule:nonzero;"/>
            </g>
            <g transform="matrix(0.325464,0,0,-0.323873,-509.138992,3693.133257)">
                <path d="M4307.769,6077.374L4167.698,6095.551L4167.698,6105.452L4297.956,6087.935L4297.956,6123.374L4307.769,6123.374" style="fill-rule:nonzero;"/>
            </g>
            <g transform="matrix(0.325464,0,0,-0.323873,-509.138992,3689.22259)">
                <path d="M4814.825,6071.336L5094.022,6071.336L5094.022,6081.15L4824.639,6081.15L4824.639,6117.336L4814.825,6117.336" style="fill-rule:nonzero;"/>
            </g>
            <g transform="matrix(0.325464,0,0,-0.323873,-509.138992,3689.22259)">
                <path d="M5496.952,6071.336L5233.089,6071.336L5233.089,6081.15L5487.139,6081.15L5487.139,6117.336L5496.952,6117.336" style="fill-rule:nonzero;"/>
            </g>
            <g transform="matrix(0,-0.323873,0.325464,0,965.516551,3577.210262)">
                <path d="M8163.827,3554.843L8194.589,3554.843L8209.922,3757.046L8179.161,3757.046L8163.827,3554.843Z" style="fill-rule:nonzero;"/>
            </g>
            <g transform="matrix(0,-0.323873,0.325464,0,961.569689,3791.850279)">
                <path d="M8489.129,3892.271L8519.89,3892.271L8535.224,4094.474L8504.462,4094.474L8489.129,3892.271Z" style="fill-rule:nonzero;"/>
            </g>
            <g transform="matrix(0,-0.323873,0.325464,0,1085.634328,3920.725343)">
                <path d="M8916.322,3900.764L8948.476,3900.764L8887.142,4102.707L8854.988,4102.707L8916.322,3900.764Z" style="fill-rule:nonzero;"/>
            </g>
            <g transform="matrix(0,-0.323873,0.325464,0,1165.134581,3378.568295)">
                <path d="M8163.827,2941.51L8194.589,2941.51L8209.922,3143.713L8179.161,3143.713L8163.827,2941.51Z" style="fill-rule:nonzero;"/>
            </g>
            <g transform="matrix(0,-0.323873,0.325464,0,1161.187719,3593.208312)">
                <path d="M8489.129,3278.938L8519.89,3278.938L8535.224,3481.141L8504.462,3481.141L8489.129,3278.938Z" style="fill-rule:nonzero;"/>
            </g>
            <g transform="matrix(0,-0.323873,0.325464,0,1285.252358,3722.083375)">
                <path d="M8916.322,3287.431L8948.476,3287.431L8887.142,3489.374L8854.988,3489.374L8916.322,3287.431Z" style="fill-rule:nonzero;"/>
            </g>
            <g transform="matrix(0.325464,0,0,-0.323873,-509.138992,1722.444136)">
                <path d="M6973.88,3080.992L7180.281,3080.992L7180.281,3071.179L6983.694,3071.179L6983.694,3034.992L6973.88,3034.992" style="fill-rule:nonzero;"/>
            </g>
            <g transform="matrix(0.325464,0,0,-0.323873,-509.138992,1722.444136)">
                <path d="M7541.083,3080.992L7319.349,3080.992L7319.349,3071.179L7531.269,3071.179L7531.269,3034.992L7541.083,3034.992" style="fill-rule:nonzero;"/>
            </g>
            <g transform="matrix(0,-0.323873,0.325464,0,-129.299738,2923.786372)">
                <path d="M5473.131,4228.138L5503.892,4228.138L5519.226,4430.08L5488.464,4430.08L5473.131,4228.138Z" style="fill-rule:nonzero;"/>
            </g>
            <g transform="matrix(0,-0.323873,0.325464,0,-10.485718,3260.587178)">
                <path d="M6190.952,4565.566L6221.714,4565.566L6206.381,4767.509L6175.619,4767.509L6190.952,4565.566Z" style="fill-rule:nonzero;"/>
            </g>
            <g transform="matrix(0,-0.323873,0.325464,0,121.291252,3381.787621)">
                <path d="M6565.175,4550.102L6595.937,4550.102L6611.27,4752.305L6580.508,4752.305L6565.175,4550.102Z" style="fill-rule:nonzero;"/>
            </g>
            <g transform="matrix(0.325464,0,0,-0.323873,-509.138992,2537.854273)">
                <path d="M1836.348,4327.514L2014.435,4352.156L2014.435,4342.244L1846.162,4318.96L1846.162,4281.514L1836.348,4281.514" style="fill-rule:nonzero;"/>
            </g>
            <g transform="matrix(0.325464,0,0,-0.323873,-509.138992,2499.736914)">
                <path d="M2346.311,4280.989L2152.891,4254.165L2152.891,4244.253L2336.498,4270.379L2336.498,4234.989L2346.311,4234.989" style="fill-rule:nonzero;"/>
            </g>
            <g transform="matrix(0.325464,0,0,-0.323873,-509.138992,2523.906303)">
                <path d="M8016.482,4318.302L8279.992,4318.302L8279.992,4308.489L8026.295,4308.489L8026.295,4272.302L8016.482,4272.302" style="fill-rule:nonzero;"/>
            </g>
            <g transform="matrix(0.325464,0,0,-0.323873,-509.138992,2523.906303)">
                <path d="M8697.902,4318.302L8419.059,4318.302L8419.059,4308.489L8688.089,4308.489L8688.089,4272.302L8697.902,4272.302" style="fill-rule:nonzero;"/>
            </g>
            <g transform="matrix(0,-0.323873,0.325464,0,-1346.746667,2231.710583)">
                <rect x="2542.083" y="5029.894" width="30.667" height="202.203"/>
            </g>
            <g transform="matrix(0,-0.323873,0.325464,0,-1049.141827,2567.588633)">
                <rect x="3517.818" y="5091.227" width="30.667" height="202.203"/>
            </g>
            <g transform="matrix(0,-0.323873,0.325464,0,-714.093178,2866.205962)">
                <path d="M4485.838,5037.513L4516.6,5037.513L4531.933,5239.716L4501.171,5239.716L4485.838,5037.513Z" style="fill-rule:nonzero;"/>
            </g>
            <g transform="matrix(0,-0.323873,0.325464,0,-392.764747,3185.963129)">
                <path d="M5488.464,5037.643L5519.226,5037.643L5503.892,5239.586L5473.131,5239.586L5488.464,5037.643Z" style="fill-rule:nonzero;"/>
            </g>
            <g transform="matrix(0.325464,0,0,-0.323873,-509.138992,3032.881907)">
                <path d="M5817.321,5104.067L6023.627,5094.333L6023.627,5084.508L5827.134,5093.779L5827.134,5058.067L5817.321,5058.067" style="fill-rule:nonzero;"/>
            </g>
            <g transform="matrix(0.325464,0,0,-0.323873,-509.138992,3046.931765)">
                <path d="M6384.263,5120.52L6162.623,5130.995L6162.623,5121.17L6374.449,5110.932L6374.449,5074.52L6384.263,5074.52" style="fill-rule:nonzero;"/>
            </g>
            <g transform="matrix(0.325464,0,0,-0.323873,-509.138992,3050.324504)">
                <path d="M6973.88,5130.995L7180.281,5130.995L7180.281,5121.182L6983.694,5121.182L6983.694,5084.995L6973.88,5084.995" style="fill-rule:nonzero;"/>
            </g>
            <g transform="matrix(0.325464,0,0,-0.323873,-509.138992,3050.324504)">
                <path d="M7541.083,5130.995L7319.349,5130.995L7319.349,5121.182L7531.269,5121.182L7531.269,5084.995L7541.083,5084.995" style="fill-rule:nonzero;"/>
            </g>
            <g transform="matrix(0.325464,0,0,-0.323873,-509.138992,3050.324504)">
                <path d="M8016.482,5130.995L8422.153,5130.995L8422.153,5121.182L8026.295,5121.182L8026.295,5084.995L8016.482,5084.995" style="fill-rule:nonzero;"/>
            </g>
            <g transform="matrix(0.325464,0,0,-0.323873,-509.138992,3050.324504)">
                <path d="M8982.224,5130.995L8561.22,5130.995L8561.22,5121.182L8972.411,5121.182L8972.411,5084.995L8982.224,5084.995" style="fill-rule:nonzero;"/>
            </g>
            <g transform="matrix(1.301857,0,0,1.295491,1203.346972,224.125224)">
                <g transform="matrix(60.416664,0,0,60.416664,464.091024,159.90166)">
                </g>
                <text x="415.395px" y="159.902px" style="font-family:'MezzaStd', 'Mezza Std';font-size:60.417px;"></text>
            </g>
            <g transform="matrix(1.301857,0,0,1.295491,-53.699407,125.996092)">
                <text x="110.475px" y="135.982px" style="font-family:'MezzaStd', 'Mezza Std';font-size:60.417px;"></text>
                <g transform="matrix(60.416664,0,0,60.416664,264.302391,158.981659)">
                </g>
                <text x="179.31px" y="158.982px" style="font-family:'MezzaStd', 'Mezza Std';font-size:60.417px;"> <tspan x="248.111px " y="158.982px "></tspan></text>
            </g>
            <g transform="matrix(1.301857,0,0,1.295491,289.608664,133.544486)">
                <g transform="matrix(60.416664,0,0,60.416664,213.930206,137.821661)">
                </g>
                <text x="193.751px" y="137.822px" style="font-family:'MezzaStd', 'Mezza Std';font-size:60.417px;"></text>
            </g>
            <g transform="matrix(1.301857,0,0,1.295491,530.959313,133.544486)">
                <g transform="matrix(60.416664,0,0,60.416664,272.474276,137.821661)">
                </g>
                <text x="252.295px" y="137.822px" style="font-family:'MezzaStd', 'Mezza Std';font-size:60.417px;"></text>
            </g>
            <g transform="matrix(1.301857,0,0,1.295491,773.723323,133.544486)">
                <g transform="matrix(60.416664,0,0,60.416664,331.361184,137.821661)">
                </g>
                <text x="311.182px" y="137.822px" style="font-family:'MezzaStd', 'Mezza Std';font-size:60.417px;"></text>
            </g>
            <g transform="matrix(1.301857,0,0,1.295491,1038.851104,133.544486)">
                <g transform="matrix(60.416664,0,0,60.416664,395.672839,137.821661)">
                </g>
                <text x="375.494px" y="137.822px" style="font-family:'MezzaStd', 'Mezza Std';font-size:60.417px;"></text>
            </g>
            <g transform="matrix(1.301857,0,0,1.295491,1217.083424,125.996092)">
                <g transform="matrix(60.416664,0,0,60.416664,438.543889,135.981661)">
                </g>
                <text x="418.727px" y="135.982px" style="font-family:'MezzaStd', 'Mezza Std';font-size:60.417px;"></text>
            </g>
            <g transform="matrix(1.301857,0,0,1.295491,1474.973811,125.996092)">
                <g transform="matrix(60.416664,0,0,60.416664,501.09998,135.981661)">
                </g>
                <text x="481.283px" y="135.982px" style="font-family:'MezzaStd', 'Mezza Std';font-size:60.417px;"></text>
            </g>
            <g transform="matrix(1.301857,0,0,1.295491,1203.346972,375.093119)">
                <g transform="matrix(60.416664,0,0,60.416664,464.091024,196.701659)">
                </g>
                <text x="415.395px" y="196.702px" style="font-family:'MezzaStd', 'Mezza Std';font-size:60.417px;"></text>
            </g>
            <g transform="matrix(1.301857,0,0,1.295491,-53.699407,337.351145)">
                <g transform="matrix(60.416664,0,0,60.416664,128.419057,187.501659)">
                </g>
                <text x="110.475px" y="187.502px" style="font-family:'MezzaStd', 'Mezza Std';font-size:60.417px;"></text>
            </g>
            <g transform="matrix(1.301857,0,0,1.295491,14.406095,299.609171)">
                <g transform="matrix(60.416664,0,0,60.416664,211.989308,178.301659)">
                </g>
                <text x="126.996px" y="178.302px" style="font-family:'MezzaStd', 'Mezza Std';font-size:60.417px;"> <tspan x="195.798px " y="178.302px "></tspan></text>
            </g>
            <g transform="matrix(1.301857,0,0,1.295491,289.608664,284.512381)">
                <g transform="matrix(60.416664,0,0,60.416664,213.930206,174.62166)">
                </g>
                <text x="193.751px" y="174.622px" style="font-family:'MezzaStd', 'Mezza Std';font-size:60.417px;"></text>
            </g>
            <g transform="matrix(1.301857,0,0,1.295491,530.959313,284.512381)">
                <g transform="matrix(60.416664,0,0,60.416664,272.474276,174.62166)">
                </g>
                <text x="252.295px" y="174.622px" style="font-family:'MezzaStd', 'Mezza Std';font-size:60.417px;"></text>
            </g>
            <g transform="matrix(1.301857,0,0,1.295491,773.723323,284.512381)">
                <g transform="matrix(60.416664,0,0,60.416664,331.361184,174.62166)">
                </g>
                <text x="311.182px" y="174.622px" style="font-family:'MezzaStd', 'Mezza Std';font-size:60.417px;"></text>
            </g>
            <g transform="matrix(1.301857,0,0,1.295491,1038.851104,284.512381)">
                <g transform="matrix(60.416664,0,0,60.416664,395.672839,174.62166)">
                </g>
                <text x="375.494px" y="174.622px" style="font-family:'MezzaStd', 'Mezza Std';font-size:60.417px;"></text>
            </g>
            <g transform="matrix(1.301857,0,0,1.295491,1217.083424,307.157566)">
                <g transform="matrix(60.416664,0,0,60.416664,438.543889,180.14166)">
                </g>
                <text x="418.727px" y="180.142px" style="font-family:'MezzaStd', 'Mezza Std';font-size:60.417px;"></text>
            </g>
            <g transform="matrix(1.301857,0,0,1.295491,1474.973811,307.157566)">
                <g transform="matrix(60.416664,0,0,60.416664,501.09998,180.14166)">
                </g>
                <text x="481.283px" y="180.142px" style="font-family:'MezzaStd', 'Mezza Std';font-size:60.417px;"></text>
            </g>
            <g transform="matrix(1.301857,0,0,1.295491,-53.699407,492.337458)">
                <g transform="matrix(60.416664,0,0,60.416664,264.302391,225.281189)">
                </g>
                <text x="110.475px" y="225.281px" style="font-family:'MezzaStd', 'Mezza Std';font-size:60.417px;"> <tspan x="179.309px 195.5px 248.111px " y="225.281px 225.281px 225.281px "> </tspan></text>
            </g>
            <g transform="matrix(1.301857,0,0,1.295491,289.608664,477.240669)">
                <g transform="matrix(60.416664,0,0,60.416664,213.930206,221.601189)">
                </g>
                <text x="193.751px" y="221.601px" style="font-family:'MezzaStd', 'Mezza Std';font-size:60.417px;"></text>
            </g>
            <g transform="matrix(1.301857,0,0,1.295491,530.959313,477.240669)">
                <g transform="matrix(60.416664,0,0,60.416664,272.474276,221.601189)">
                </g>
                <text x="252.295px" y="221.601px" style="font-family:'MezzaStd', 'Mezza Std';font-size:60.417px;"></text>
            </g>
            <g transform="matrix(1.301857,0,0,1.295491,773.723323,477.240669)">
                <g transform="matrix(60.416664,0,0,60.416664,331.361184,221.601189)">
                </g>
                <text x="311.182px" y="221.601px" style="font-family:'MezzaStd', 'Mezza Std';font-size:60.417px;"></text>
            </g>
            <g transform="matrix(1.301857,0,0,1.295491,1038.851104,477.240669)">
                <g transform="matrix(60.416664,0,0,60.416664,395.672839,221.601189)">
                </g>
                <text x="375.494px" y="221.601px" style="font-family:'MezzaStd', 'Mezza Std';font-size:60.417px;"></text>
            </g>
            <g transform="matrix(1.301857,0,0,1.295491,1217.083424,484.789062)">
                <text x="418.727px" y="223.441px" style="font-family:'MezzaStd', 'Mezza Std';font-size:60.417px;"></text>
                <g transform="matrix(60.416664,0,0,60.416664,554.248663,231.107856)">
                </g>
                <text x="536.305px" y="231.108px" style="font-family:'MezzaStd', 'Mezza Std';font-size:60.417px;"></text>
            </g>
            <g transform="matrix(1.301857,0,0,1.295491,1474.973811,499.885854)">
                <g transform="matrix(60.416664,0,0,60.416664,499.227064,227.121189)">
                </g>
                <text x="481.283px" y="227.121px" style="font-family:'MezzaStd', 'Mezza Std';font-size:60.417px;"></text>
            </g>
            <g transform="matrix(1.301857,0,0,1.295491,1523.168775,492.337458)">
                <g transform="matrix(60.416664,0,0,60.416664,510.917645,225.281189)">
                </g>
                <text x="492.974px" y="225.281px" style="font-family:'MezzaStd', 'Mezza Std';font-size:60.417px;"></text>
            </g>
            <g transform="matrix(1.301857,0,0,1.295491,1571.363741,484.789062)">
                <g transform="matrix(60.416664,0,0,60.416664,522.608227,223.441189)">
                </g>
                <text x="504.664px" y="223.441px" style="font-family:'MezzaStd', 'Mezza Std';font-size:60.417px;"></text>
            </g>
            <g transform="matrix(1.301857,0,0,1.295491,1619.558707,477.240669)">
                <g transform="matrix(60.416664,0,0,60.416664,534.298808,221.601189)">
                </g>
                <text x="516.355px" y="221.601px" style="font-family:'MezzaStd', 'Mezza Std';font-size:60.417px;"></text>
            </g>
            <g transform="matrix(1.301857,0,0,1.295491,1667.753671,469.692273)">
                <text x="528.046px" y="219.761px" style="font-family:'MezzaStd', 'Mezza Std';font-size:60.417px;"></text>
                <g transform="matrix(60.416664,0,0,60.416664,594.635042,250.427857)">
                </g>
                <text x="576.691px" y="250.428px" style="font-family:'MezzaStd', 'Mezza Std';font-size:60.417px;"></text>
            </g>
            <g transform="matrix(1.301857,0,0,1.295491,-53.699407,658.402143)">
                <g transform="matrix(60.416664,0,0,60.416664,128.419057,265.761187)">
                </g>
                <text x="110.475px" y="265.761px" style="font-family:'MezzaStd', 'Mezza Std';font-size:60.417px;"></text>
            </g>
            <g transform="matrix(1.301857,0,0,1.295491,14.406095,643.305354)">
                <g transform="matrix(60.416664,0,0,60.416664,211.989308,262.081188)">
                </g>
                <text x="126.996px" y="262.081px" style="font-family:'MezzaStd', 'Mezza Std';font-size:60.417px;"> <tspan x="195.798px " y="262.081px "></tspan></text>
            </g>
            <g transform="matrix(1.301857,0,0,1.295491,289.608664,628.208564)">
                <g transform="matrix(60.416664,0,0,60.416664,213.930206,258.401188)">
                </g>
                <text x="193.751px" y="258.401px" style="font-family:'MezzaStd', 'Mezza Std';font-size:60.417px;"></text>
            </g>
            <g transform="matrix(1.301857,0,0,1.295491,530.959313,628.208564)">
                <g transform="matrix(60.416664,0,0,60.416664,272.474276,258.401188)">
                </g>
                <text x="252.295px" y="258.401px" style="font-family:'MezzaStd', 'Mezza Std';font-size:60.417px;"></text>
            </g>
            <g transform="matrix(1.301857,0,0,1.295491,773.723323,628.208564)">
                <g transform="matrix(60.416664,0,0,60.416664,331.361184,258.401188)">
                </g>
                <text x="311.182px" y="258.401px" style="font-family:'MezzaStd', 'Mezza Std';font-size:60.417px;"></text>
            </g>
            <g transform="matrix(1.301857,0,0,1.295491,1038.851104,628.208564)">
                <g transform="matrix(60.416664,0,0,60.416664,395.672839,258.401188)">
                </g>
                <text x="375.494px" y="258.401px" style="font-family:'MezzaStd', 'Mezza Std';font-size:60.417px;"></text>
            </g>
            <g transform="matrix(1.301857,0,0,1.295491,1310.835393,628.208564)">
                <g transform="matrix(60.416664,0,0,60.416664,461.647666,258.401188)">
                </g>
                <text x="441.469px" y="258.401px" style="font-family:'MezzaStd', 'Mezza Std';font-size:60.417px;"></text>
            </g>
            <g transform="matrix(1.301857,0,0,1.295491,1474.973811,650.85375)">
                <g transform="matrix(60.416664,0,0,60.416664,499.227064,263.921188)">
                </g>
                <text x="481.283px" y="263.921px" style="font-family:'MezzaStd', 'Mezza Std';font-size:60.417px;"></text>
            </g>
            <g transform="matrix(1.301857,0,0,1.295491,1523.168775,643.305354)">
                <g transform="matrix(60.416664,0,0,60.416664,510.917645,262.081188)">
                </g>
                <text x="492.974px" y="262.081px" style="font-family:'MezzaStd', 'Mezza Std';font-size:60.417px;"></text>
            </g>
            <g transform="matrix(1.301857,0,0,1.295491,1571.363741,635.756958)">
                <g transform="matrix(60.416664,0,0,60.416664,522.608227,260.241187)">
                </g>
                <text x="504.664px" y="260.241px" style="font-family:'MezzaStd', 'Mezza Std';font-size:60.417px;"></text>
            </g>
            <g transform="matrix(1.301857,0,0,1.295491,1619.558707,628.208564)">
                <g transform="matrix(60.416664,0,0,60.416664,534.298808,258.401188)">
                </g>
                <text x="516.355px" y="258.401px" style="font-family:'MezzaStd', 'Mezza Std';font-size:60.417px;"></text>
            </g>
            <g transform="matrix(1.301857,0,0,1.295491,1667.753671,620.660168)">
                <text x="528.046px" y="256.561px" style="font-family:'MezzaStd', 'Mezza Std';font-size:60.417px;"></text>
                <g transform="matrix(60.416664,0,0,60.416664,594.635042,287.227855)">
                </g>
                <text x="576.691px" y="287.228px" style="font-family:'MezzaStd', 'Mezza Std';font-size:60.417px;"></text>
            </g>
            <g transform="matrix(1.301857,0,0,1.295491,1218.661587,881.994388)">
                <g transform="matrix(60.416664,0,0,60.416664,433.851702,320.264128)">
                </g>
                <text x="419.11px" y="320.264px" style="font-family:'MezzaStd', 'Mezza Std';font-size:60.417px;"></text>
            </g>
            <g transform="matrix(1.301857,0,0,1.295491,-53.699407,842.968033)">
                <g transform="matrix(60.416664,0,0,60.416664,128.419057,310.751047)">
                </g>
                <text x="110.475px" y="310.751px" style="font-family:'MezzaStd', 'Mezza Std';font-size:60.417px;"></text>
            </g>
            <g transform="matrix(1.301857,0,0,1.295491,48.474951,805.226058)">
                <g transform="matrix(60.416664,0,0,60.416664,153.203341,301.551048)">
                </g>
                <text x="135.26px" y="301.551px" style="font-family:'MezzaStd', 'Mezza Std';font-size:60.417px;"></text>
            </g>
            <g transform="matrix(1.301857,0,0,1.295491,194.644708,820.322847)">
                <g transform="matrix(60.416664,0,0,60.416664,208.786344,305.231047)">
                </g>
                <text x="170.716px" y="305.231px" style="font-family:'MezzaStd', 'Mezza Std';font-size:60.417px;"><tspan x="188.97px " y="305.231px "></tspan></text>
            </g>
            <g transform="matrix(1.301857,0,0,1.295491,454.055974,820.322847)">
                <g transform="matrix(60.416664,0,0,60.416664,253.457447,305.231047)">
                </g>
                <text x="233.641px" y="305.231px" style="font-family:'MezzaStd', 'Mezza Std';font-size:60.417px;"></text>
            </g>
            <g transform="matrix(1.301857,0,0,1.295491,565.180687,805.226058)">
                <text x="260.596px" y="301.551px" style="font-family:'MezzaStd', 'Mezza Std';font-size:60.417px;"></text>
                <text x="383.545px" y="309.218px" style="font-family:'MezzaStd', 'Mezza Std';font-size:60.417px;"></text>
                <g transform="matrix(60.416664,0,0,60.416664,525.428146,316.88438)">
                </g>
                <text x="491.77px" y="316.884px" style="font-family:'MezzaStd', 'Mezza Std';font-size:60.417px;"><tspan x="507.484px " y="316.884px "></tspan></text>
            </g>
            <g transform="matrix(1.301857,0,0,1.295491,857.58523,812.774452)">
                <g transform="matrix(60.416664,0,0,60.416664,349.468027,303.391047)">
                </g>
                <text x="331.524px" y="303.391px" style="font-family:'MezzaStd', 'Mezza Std';font-size:60.417px;"></text>
            </g>
            <g transform="matrix(1.301857,0,0,1.295491,931.005233,805.226058)">
                <g transform="matrix(60.416664,0,0,60.416664,367.277408,301.551048)">
                </g>
                <text x="349.334px" y="301.551px" style="font-family:'MezzaStd', 'Mezza Std';font-size:60.417px;"></text>
            </g>
            <g transform="matrix(1.301857,0,0,1.295491,999.142943,797.677662)">
                <text x="365.862px" y="299.711px" style="font-family:'MezzaStd', 'Mezza Std';font-size:60.417px;"></text>
                <g transform="matrix(60.416664,0,0,60.416664,432.451125,307.377715)">
                </g>
                <text x="414.507px" y="307.378px" style="font-family:'MezzaStd', 'Mezza Std';font-size:60.417px;"></text>
            </g>
            <g transform="matrix(1.301857,0,0,1.295491,1095.468457,797.677662)">
                <g transform="matrix(60.416664,0,0,60.416664,407.17101,299.711047)">
                </g>
                <text x="389.227px" y="299.711px" style="font-family:'MezzaStd', 'Mezza Std';font-size:60.417px;"></text>
            </g>
            <g transform="matrix(1.301857,0,0,1.295491,1143.663423,790.129269)">
                <g transform="matrix(60.416664,0,0,60.416664,418.861592,297.871048)">
                </g>
                <text x="400.918px" y="297.871px" style="font-family:'MezzaStd', 'Mezza Std';font-size:60.417px;"></text>
            </g>
            <g transform="matrix(1.301857,0,0,1.295491,1217.083424,782.580873)">
                <text x="418.727px" y="296.031px" style="font-family:'MezzaStd', 'Mezza Std';font-size:60.417px;"></text>
                <g transform="matrix(60.416664,0,0,60.416664,504.994155,357.364379)">
                </g>
                <text x="487.594px" y="357.364px" style="font-family:'MezzaStd', 'Mezza Std';font-size:60.417px;"></text>
            </g>
            <g transform="matrix(1.301857,0,0,1.295491,1285.221134,790.129269)">
                <text x="435.255px" y="297.871px" style="font-family:'MezzaStd', 'Mezza Std';font-size:60.417px;"></text>
                <g transform="matrix(60.416664,0,0,60.416664,501.909794,305.537713)">
                </g>
                <text x="483.966px" y="305.538px" style="font-family:'MezzaStd', 'Mezza Std';font-size:60.417px;"></text>
            </g>
            <g transform="matrix(1.301857,0,0,1.295491,1401.553808,858.064822)">
                <g transform="matrix(60.416664,0,0,60.416664,480.873932,314.431047)">
                </g>
                <text x="463.474px" y="314.431px" style="font-family:'MezzaStd', 'Mezza Std';font-size:60.417px;"></text>
            </g>
            <g transform="matrix(1.301857,0,0,1.295491,1401.553808,805.226058)">
                <text x="463.474px" y="301.551px" style="font-family:'MezzaStd', 'Mezza Std';font-size:60.417px;"></text>
                <g transform="matrix(60.416664,0,0,60.416664,555.623439,309.217713)">
                </g>
                <text x="537.68px" y="309.218px" style="font-family:'MezzaStd', 'Mezza Std';font-size:60.417px;"></text>
            </g>
            <g transform="matrix(1.301857,0,0,1.295491,1619.558707,775.03248)">
                <g transform="matrix(60.416664,0,0,60.416664,534.298808,294.191048)">
                </g>
                <text x="516.355px" y="294.191px" style="font-family:'MezzaStd', 'Mezza Std';font-size:60.417px;"></text>
            </g>
            <g transform="matrix(1.301857,0,0,1.295491,1218.661587,1080.444306)">
                <g transform="matrix(60.416664,0,0,60.416664,433.851702,368.638365)">
                </g>
                <text x="419.11px" y="368.638px" style="font-family:'MezzaStd', 'Mezza Std';font-size:60.417px;"></text>
            </g>
            <g transform="matrix(1.301857,0,0,1.295491,-71.760024,1012.028789)">
                <g transform="matrix(60.416664,0,0,60.416664,144.164941,351.961369)">
                </g>
                <text x="106.094px" y="351.961px" style="font-family:'MezzaStd', 'Mezza Std';font-size:60.417px;"><tspan x="124.348px " y="351.961px "></tspan></text>
            </g>
            <g transform="matrix(1.301857,0,0,1.295491,82.511597,1012.028789)">
                <text x="143.516px" y="351.961px" style="font-family:'MezzaStd', 'Mezza Std';font-size:60.417px;"> <tspan x="192.224px " y="351.961px "></tspan></text>
                <g transform="matrix(60.416664,0,0,60.416664,538.853309,367.294702)">
                </g>
                <text x="275.103px" y="367.295px" style="font-family:'MezzaStd', 'Mezza Std';font-size:60.417px;"> <tspan x="387.453px 405.397px 436.162px 454.105px 519.037px " y="367.295px 367.295px 367.295px 367.295px 367.295px ">  </tspan></text>
            </g>
            <g transform="matrix(1.301857,0,0,1.295491,547.152278,1019.577182)">
                <g transform="matrix(60.416664,0,0,60.416664,292.420669,353.801369)">
                </g>
                <text x="256.223px" y="353.801px" style="font-family:'MezzaStd', 'Mezza Std';font-size:60.417px;"><tspan x="274.477px " y="353.801px "></tspan></text>
            </g>
            <g transform="matrix(1.301857,0,0,1.295491,595.347244,1012.028789)">
                <text x="267.914px" y="351.961px" style="font-family:'MezzaStd', 'Mezza Std';font-size:60.417px;"><tspan x="286.168px " y="351.961px "></tspan></text>
                <g transform="matrix(60.416664,0,0,60.416664,380.189922,367.294702)">
                </g>
                <text x="360.373px" y="367.295px" style="font-family:'MezzaStd', 'Mezza Std';font-size:60.417px;"></text>
            </g>
            <g transform="matrix(1.301857,0,0,1.295491,793.906239,1012.028789)">
                <text x="316.078px" y="351.961px" style="font-family:'MezzaStd', 'Mezza Std';font-size:60.417px;"><tspan x="331.793px " y="351.961px "></tspan></text>
                <g transform="matrix(60.416664,0,0,60.416664,398.382003,359.628034)">
                </g>
                <text x="364.723px" y="359.628px" style="font-family:'MezzaStd', 'Mezza Std';font-size:60.417px;"><tspan x="380.438px " y="359.628px "></tspan></text>
            </g>
            <g transform="matrix(1.301857,0,0,1.295491,931.005233,1012.028789)">
                <text x="349.334px" y="351.961px" style="font-family:'MezzaStd', 'Mezza Std';font-size:60.417px;"></text>
                <g transform="matrix(60.416664,0,0,60.416664,484.789993,359.628034)">
                </g>
                <text x="466.846px" y="359.628px" style="font-family:'MezzaStd', 'Mezza Std';font-size:60.417px;"></text>
            </g>
            <g transform="matrix(1.301857,0,0,1.295491,1217.083424,1027.125578)">
                <text x="418.727px" y="355.641px" style="font-family:'MezzaStd', 'Mezza Std';font-size:60.417px;"></text>
                <g transform="matrix(60.416664,0,0,60.416664,554.248663,363.308034)">
                </g>
                <text x="536.305px" y="363.308px" style="font-family:'MezzaStd', 'Mezza Std';font-size:60.417px;"></text>
            </g>
            <g transform="matrix(1.301857,0,0,1.295491,1474.973811,1042.222367)">
                <g transform="matrix(60.416664,0,0,60.416664,499.227064,359.321369)">
                </g>
                <text x="481.283px" y="359.321px" style="font-family:'MezzaStd', 'Mezza Std';font-size:60.417px;"></text>
            </g>
            <g transform="matrix(1.301857,0,0,1.295491,1619.558707,996.931997)">
                <text x="532.451px" y="348.281px" style="font-family:'MezzaStd', 'Mezza Std';font-size:60.417px;"></text>
                <g transform="matrix(60.416664,0,0,60.416664,534.298808,401.948034)">
                </g>
                <text x="516.355px" y="401.948px" style="font-family:'MezzaStd', 'Mezza Std';font-size:60.417px;"></text>
            </g>
            <g transform="matrix(1.301857,0,0,1.295491,1691.818948,996.931997)">
                <g transform="matrix(60.416664,0,0,60.416664,549.893535,348.281369)">
                </g>
                <text x="533.883px" y="348.281px" style="font-family:'MezzaStd', 'Mezza Std';font-size:60.417px;"></text>
            </g>
            <g transform="matrix(1.301857,0,0,1.295491,1218.661587,1243.114003)">
                <g transform="matrix(60.416664,0,0,60.416664,433.851702,408.2908)">
                </g>
                <text x="419.11px" y="408.291px" style="font-family:'MezzaStd', 'Mezza Std';font-size:60.417px;"></text>
            </g>
            <g transform="matrix(1.301857,0,0,1.295491,-53.699407,1140.351499)">
                <g transform="matrix(60.416664,0,0,60.416664,130.291974,383.241368)">
                </g>
                <text x="110.475px" y="383.241px" style="font-family:'MezzaStd', 'Mezza Std';font-size:60.417px;"></text>
            </g>
            <g transform="matrix(1.301857,0,0,1.295491,212.705325,1110.15792)">
                <text x="175.097px" y="375.881px" style="font-family:'MezzaStd', 'Mezza Std';font-size:60.417px;"></text>
                <g transform="matrix(60.416664,0,0,60.416664,277.316642,383.548033)">
                </g>
                <text x="259.373px" y="383.548px" style="font-family:'MezzaStd', 'Mezza Std';font-size:60.417px;"></text>
            </g>
            <g transform="matrix(1.301857,0,0,1.295491,435.995357,1125.25471)">
                <text x="229.26px" y="379.561px" style="font-family:'MezzaStd', 'Mezza Std';font-size:60.417px;"><tspan x="247.514px " y="379.561px "></tspan></text>
                <g transform="matrix(60.416664,0,0,60.416664,349.733681,394.894701)">
                </g>
                <text x="331.79px" y="394.895px" style="font-family:'MezzaStd', 'Mezza Std';font-size:60.417px;"></text>
            </g>
            <g transform="matrix(1.301857,0,0,1.295491,686.827861,1117.706314)">
                <g transform="matrix(60.416664,0,0,60.416664,308.047664,377.721368)">
                </g>
                <text x="290.104px" y="377.721px" style="font-family:'MezzaStd', 'Mezza Std';font-size:60.417px;"></text>
            </g>
            <g transform="matrix(1.301857,0,0,1.295491,770.211655,1185.641867)">
                <g transform="matrix(60.416664,0,0,60.416664,327.730198,394.281367)">
                </g>
                <text x="310.33px" y="394.281px" style="font-family:'MezzaStd', 'Mezza Std';font-size:60.417px;"></text>
            </g>
            <g transform="matrix(1.301857,0,0,1.295491,770.211655,1132.803103)">
                <text x="310.33px" y="381.401px" style="font-family:'MezzaStd', 'Mezza Std';font-size:60.417px;"></text>
                <g transform="matrix(60.416664,0,0,60.416664,390.326452,396.7347)">
                </g>
                <text x="374.316px" y="396.735px" style="font-family:'MezzaStd', 'Mezza Std';font-size:60.417px;"></text>
            </g>
            <g transform="matrix(1.301857,0,0,1.295491,931.005233,1110.15792)">
                <g transform="matrix(60.416664,0,0,60.416664,381.038605,375.881368)">
                </g>
                <text x="349.334px" y="375.881px" style="font-family:'MezzaStd', 'Mezza Std';font-size:60.417px;"><tspan x="374.937px " y="375.881px "></tspan></text>
            </g>
            <g transform="matrix(1.301857,0,0,1.295491,1047.273494,1185.641867)">
                <g transform="matrix(60.416664,0,0,60.416664,394.936679,394.281367)">
                </g>
                <text x="377.537px" y="394.281px" style="font-family:'MezzaStd', 'Mezza Std';font-size:60.417px;"></text>
            </g>
            <g transform="matrix(1.301857,0,0,1.295491,1047.273494,1132.803103)">
                <g transform="matrix(60.416664,0,0,60.416664,395.480429,381.401368)">
                </g>
                <text x="377.537px" y="381.401px" style="font-family:'MezzaStd', 'Mezza Std';font-size:60.417px;"></text>
            </g>
            <g transform="matrix(1.301857,0,0,1.295491,1053.763281,1110.15792)">
                <text x="379.111px" y="375.881px" style="font-family:'MezzaStd', 'Mezza Std';font-size:60.417px;"></text>
                <g transform="matrix(60.416664,0,0,60.416664,439.206159,406.548033)">
                </g>
                <text x="421.262px" y="406.548px" style="font-family:'MezzaStd', 'Mezza Std';font-size:60.417px;"></text>
            </g>
            <g transform="matrix(1.301857,0,0,1.295491,1101.958247,1127.930876)">
                <text x="390.801px" y="380.214px" style="font-family:'MezzaStd', 'Mezza Std';font-size:60.417px;"> <tspan x="439.51px " y="380.214px "></tspan></text>
                <text x="432.953px" y="400.496px" style="font-family:'MezzaStd', 'Mezza Std';font-size:60.417px;"></text>
                <g transform="matrix(60.416664,0,0,60.416664,526.975413,408.162279)">
                </g>
                <text x="507.159px" y="408.162px" style="font-family:'MezzaStd', 'Mezza Std';font-size:60.417px;"></text>
            </g>
            <g transform="matrix(1.301857,0,0,1.295491,1474.973811,1155.448288)">
                <g transform="matrix(60.416664,0,0,60.416664,501.09998,386.921368)">
                </g>
                <text x="481.283px" y="386.921px" style="font-family:'MezzaStd', 'Mezza Std';font-size:60.417px;"></text>
            </g>
            <g transform="matrix(1.301857,0,0,1.295491,-53.699407,1324.258293)">
                <g transform="matrix(60.416664,0,0,60.416664,130.291974,428.070567)">
                </g>
                <text x="110.475px" y="428.071px" style="font-family:'MezzaStd', 'Mezza Std';font-size:60.417px;"></text>
            </g>
            <g transform="matrix(1.301857,0,0,1.295491,82.511597,1324.258293)">
                <text x="143.516px" y="428.071px" style="font-family:'MezzaStd', 'Mezza Std';font-size:60.417px;"> <tspan x="192.227px 210.17px 275.099px 294.916px 387.453px 405.397px 436.164px 454.108px 519.037px " y="428.071px 428.071px 428.071px 428.071px 428.071px 428.071px 428.071px 428.071px 428.071px ">    </tspan></text>
                <g transform="matrix(60.416664,0,0,60.416664,649.326815,435.737234)">
                </g>
                <text x="631.383px" y="435.737px" style="font-family:'MezzaStd', 'Mezza Std';font-size:60.417px;"></text>
            </g>
            <g transform="matrix(1.301857,0,0,1.295491,613.407861,1324.258293)">
                <g transform="matrix(60.416664,0,0,60.416664,290.238283,428.070567)">
                </g>
                <text x="272.295px" y="428.071px" style="font-family:'MezzaStd', 'Mezza Std';font-size:60.417px;"></text>
            </g>
            <g transform="matrix(1.301857,0,0,1.295491,686.827861,1316.7099)">
                <text x="290.104px" y="426.231px" style="font-family:'MezzaStd', 'Mezza Std';font-size:60.417px;"></text>
                <g transform="matrix(60.416664,0,0,60.416664,431.986856,433.897232)">
                </g>
                <text x="414.043px" y="433.897px" style="font-family:'MezzaStd', 'Mezza Std';font-size:60.417px;"></text>
            </g>
            <g transform="matrix(1.301857,0,0,1.295491,857.58523,1316.7099)">
                <g transform="matrix(60.416664,0,0,60.416664,349.468027,426.230567)">
                </g>
                <text x="331.524px" y="426.231px" style="font-family:'MezzaStd', 'Mezza Std';font-size:60.417px;"></text>
            </g>
            <g transform="matrix(1.301857,0,0,1.295491,930.006803,1309.161504)">
                <text x="350.101px" y="424.391px" style="font-family:'MezzaStd', 'Mezza Std';font-size:60.417px;"></text>
                <g transform="matrix(60.416664,0,0,60.416664,370.901887,445.225852)">
                </g>
                <text x="349.091px" y="445.226px" style="font-family:'MezzaStd', 'Mezza Std';font-size:60.417px;"></text>
            </g>
            <g transform="matrix(1.301857,0,0,1.295491,1095.468457,1316.7099)">
                <text x="389.227px" y="426.231px" style="font-family:'MezzaStd', 'Mezza Std';font-size:60.417px;"></text>
                <text x="395.787px" y="438.846px" style="font-family:'MezzaStd', 'Mezza Std';font-size:60.417px;"></text>
                <text x="437.938px" y="449.231px" style="font-family:'MezzaStd', 'Mezza Std';font-size:60.417px;"></text>
                <text x="444.497px" y="465.393px" style="font-family:'MezzaStd', 'Mezza Std';font-size:60.417px;"></text>
                <g transform="matrix(60.416664,0,0,60.416664,531.960439,479.89723)">
                </g>
                <text x="512.144px" y="479.897px" style="font-family:'MezzaStd', 'Mezza Std';font-size:60.417px;"></text>
            </g>
            <g transform="matrix(1.301857,0,0,1.295491,1474.973811,1369.548661)">
                <g transform="matrix(60.416664,0,0,60.416664,501.09998,439.110566)">
                </g>
                <text x="481.283px" y="439.111px" style="font-family:'MezzaStd', 'Mezza Std';font-size:60.417px;"></text>
            </g>
            <g transform="matrix(1.301857,0,0,1.295491,-161.940724,110.322402)">
                <g transform="matrix(60.416664,0,0,60.416664,110.258954,132.161036)">
                </g>
                <text x="84.219px" y="132.161px" style="font-family:'MezzaStd', 'Mezza Std';font-size:60.417px;"></text>
            </g>
            <g transform="matrix(1.301857,0,0,1.295491,-161.940724,1347.256027)">
                <g transform="matrix(60.416664,0,0,60.416664,110.258954,433.676504)">
                </g>
                <text x="84.219px" y="433.677px" style="font-family:'MezzaStd', 'Mezza Std';font-size:60.417px;"></text>
            </g>
            <g transform="matrix(1.301857,0,0,1.295491,-139.184268,1294.064715)">
                <g transform="matrix(60.416664,0,0,60.416664,131.185203,420.710567)">
                </g>
                <text x="89.739px" y="420.711px" style="font-family:'MezzaStd', 'Mezza Std';font-size:60.417px;"></text>
            </g>
            <g transform="matrix(1.301857,0,0,1.295491,-139.184268,1132.803103)">
                <g transform="matrix(60.416664,0,0,60.416664,131.185203,381.401368)">
                </g>
                <text x="89.739px" y="381.401px" style="font-family:'MezzaStd', 'Mezza Std';font-size:60.417px;"></text>
            </g>
            <g transform="matrix(1.301857,0,0,1.295491,-139.184268,1012.028789)">
                <g transform="matrix(60.416664,0,0,60.416664,127.560203,351.961369)">
                </g>
                <text x="89.739px" y="351.961px" style="font-family:'MezzaStd', 'Mezza Std';font-size:60.417px;"></text>
            </g>
            <g transform="matrix(1.301857,0,0,1.295491,-139.184268,820.322847)">
                <g transform="matrix(60.416664,0,0,60.416664,127.560203,305.231047)">
                </g>
                <text x="89.739px" y="305.231px" style="font-family:'MezzaStd', 'Mezza Std';font-size:60.417px;"></text>
            </g>
            <g transform="matrix(1.301857,0,0,1.295491,-139.184268,314.70596)">
                <g transform="matrix(60.416664,0,0,60.416664,127.560203,181.981659)">
                </g>
                <text x="89.739px" y="181.982px" style="font-family:'MezzaStd', 'Mezza Std';font-size:60.417px;"></text>
            </g>
            <g transform="matrix(1.301857,0,0,1.295491,-139.184268,658.402143)">
                <g transform="matrix(60.416664,0,0,60.416664,127.560203,265.761187)">
                </g>
                <text x="89.739px" y="265.761px" style="font-family:'MezzaStd', 'Mezza Std';font-size:60.417px;"></text>
            </g>
            <g transform="matrix(1.301857,0,0,1.295491,-139.184268,507.434247)">
                <g transform="matrix(60.416664,0,0,60.416664,127.560203,228.961189)">
                </g>
                <text x="89.739px" y="228.961px" style="font-family:'MezzaStd', 'Mezza Std';font-size:60.417px;"></text>
            </g>
            <g transform="matrix(1.301857,0,0,1.295491,-139.184268,163.738064)">
                <g transform="matrix(60.416664,0,0,60.416664,127.560203,145.181661)">
                </g>
                <text x="89.739px" y="145.182px" style="font-family:'MezzaStd', 'Mezza Std';font-size:60.417px;"></text>
            </g>
            <g transform="matrix(1.301857,0,0,1.295491,1217.083424,439.241911)">
                <g transform="matrix(33.333332,0,0,33.333332,511.891282,194.64693)">
                </g>
                <text x="418.727px" y="194.647px" style="font-family:'Academico', serif;font-size:33.333px;">legato</text>
            </g>
            <g transform="matrix(1.301857,0,0,1.295491,1474.973811,597.581664)">
                <text x="481.283px" y="233.244px" style="font-family:'Academico', serif;font-size:33.333px;">legato</text>
                <g transform="matrix(33.333332,0,0,33.333332,574.447373,381.743894)">
                </g>
                <text x="481.283px" y="381.744px" style="font-family:'Academico', serif;font-size:33.333px;">legato</text>
            </g>
            <g transform="matrix(1.301857,0,0,1.295491,931.005233,940.522357)">
                <g transform="matrix(33.333332,0,0,33.333332,442.497718,316.839265)">
                </g>
                <text x="349.334px" y="316.839px" style="font-family:'Academico', serif;font-size:33.333px;">legato</text>
            </g>
            <g transform="matrix(1.301857,0,0,1.295491,253.656451,1204.359656)">
                <g transform="matrix(60.416664,0,0,60.416664,203.275997,398.844024)">
                </g>
                <text x="185.03px" y="398.844px" style="font-family:'MezzaStd', 'Mezza Std';font-size:60.417px;"></text>
            </g>
            <g transform="matrix(1.301857,0,0,1.295491,495.0071,1211.634079)">
                <g transform="matrix(60.416664,0,0,60.416664,261.820068,400.61724)">
                </g>
                <text x="243.574px" y="400.617px" style="font-family:'MezzaStd', 'Mezza Std';font-size:60.417px;"></text>
            </g>
            <g transform="matrix(1.301857,0,0,1.295491,758.466917,1216.914887)">
                <g transform="matrix(60.416664,0,0,60.416664,325.727127,401.904492)">
                </g>
                <text x="307.481px" y="401.904px" style="font-family:'MezzaStd', 'Mezza Std';font-size:60.417px;"></text>
            </g>
            <g transform="matrix(1.301857,0,0,1.295491,1274.508993,458.216483)">
                <g transform="matrix(60.416664,0,0,60.416664,450.902692,216.963846)">
                </g>
                <text x="432.657px" y="216.964px" style="font-family:'MezzaStd', 'Mezza Std';font-size:60.417px;"></text>
            </g>
            <g transform="matrix(1.301857,0,0,1.295491,-3.352999,762.614931)">
                <g transform="matrix(60.416664,0,0,60.416664,140.933594,291.164141)">
                </g>
                <text x="122.688px" y="291.164px" style="font-family:'MezzaStd', 'Mezza Std';font-size:60.417px;"></text>
            </g>
            <g transform="matrix(1.301857,0,0,1.295491,1546.52549,762.772106)">
                <g transform="matrix(60.416664,0,0,60.416664,516.885332,291.202454)">
                </g>
                <text x="498.639px" y="291.202px" style="font-family:'MezzaStd', 'Mezza Std';font-size:60.417px;"></text>
            </g>
            <g transform="matrix(1.301857,0,0,1.295491,988.398594,959.405718)">
                <g transform="matrix(60.416664,0,0,60.416664,381.501314,339.133947)">
                </g>
                <text x="363.255px" y="339.134px" style="font-family:'MezzaStd', 'Mezza Std';font-size:60.417px;"></text>
            </g>
            <g transform="matrix(1.301857,0,0,1.295491,1274.508993,962.811022)">
                <g transform="matrix(60.416664,0,0,60.416664,450.902692,339.964026)">
                </g>
                <text x="432.657px" y="339.964px" style="font-family:'MezzaStd', 'Mezza Std';font-size:60.417px;"></text>
            </g>
            <g transform="matrix(1.301857,0,0,1.295491,1581.689387,962.811022)">
                <g transform="matrix(60.416664,0,0,60.416664,525.414986,339.964026)">
                </g>
                <text x="507.169px" y="339.964px" style="font-family:'MezzaStd', 'Mezza Std';font-size:60.417px;"></text>
            </g>
            <g transform="matrix(1.301857,0,0,1.295491,-53.699407,243.057747)">
                <g transform="matrix(31.249999,0,0,31.249999,243.388063,145.287494)">
                </g>
                <text x="110.475px" y="145.287px" style="font-family:'Academico-Italic', 'Academico', serif;font-style:italic;font-size:31.25px;">disolvi<tspan x="206.184px " y="145.287px ">n</tspan>g</text>
            </g>
            <g transform="matrix(1.301857,0,0,1.295491,-53.699407,408.961781)">
                <g transform="matrix(31.249999,0,0,31.249999,243.388063,185.728333)">
                </g>
                <text x="110.475px" y="185.728px" style="font-family:'Academico-Italic', 'Academico', serif;font-style:italic;font-size:31.25px;">disolvi<tspan x="206.184px " y="185.728px ">n</tspan>g</text>
            </g>
            <g transform="matrix(1.301857,0,0,1.295491,-53.699407,592.685725)">
                <text x="110.475px" y="230.513px" style="font-family:'Academico-Italic', 'Academico', serif;font-style:italic;font-size:31.25px;">disolvi<tspan x="206.184px " y="230.513px ">n</tspan>g</text>
                <g transform="matrix(31.249999,0,0,31.249999,243.388063,377.804625)">
                </g>
                <text x="110.475px" y="377.805px" style="font-family:'Academico-Italic', 'Academico', serif;font-style:italic;font-size:31.25px;">disolvi<tspan x="206.184px " y="377.805px ">n</tspan>g</text>
            </g>
            <g transform="matrix(1.301857,0,0,1.295491,1244.251004,125.996092)">
                <g transform="matrix(60.416664,0,0,60.416664,431.419306,135.981661)">
                </g>
                <text x="425.317px" y="135.982px" style="font-family:'MezzaStd', 'Mezza Std';font-size:60.417px;"></text>
            </g>
            <g transform="matrix(1.301857,0,0,1.295491,1502.141392,125.996092)">
                <g transform="matrix(60.416664,0,0,60.416664,493.975397,135.981661)">
                </g>
                <text x="487.873px" y="135.982px" style="font-family:'MezzaStd', 'Mezza Std';font-size:60.417px;"></text>
            </g>
            <g transform="matrix(1.301857,0,0,1.295491,1244.251004,307.157566)">
                <g transform="matrix(60.416664,0,0,60.416664,431.419306,180.14166)">
                </g>
                <text x="425.317px" y="180.142px" style="font-family:'MezzaStd', 'Mezza Std';font-size:60.417px;"></text>
            </g>
            <g transform="matrix(1.301857,0,0,1.295491,1502.141392,307.157566)">
                <g transform="matrix(60.416664,0,0,60.416664,493.975397,180.14166)">
                </g>
                <text x="487.873px" y="180.142px" style="font-family:'MezzaStd', 'Mezza Std';font-size:60.417px;"></text>
            </g>
            <g transform="matrix(1.301857,0,0,1.295491,239.872905,812.774452)">
                <g transform="matrix(60.416664,0,0,60.416664,187.788793,303.391047)">
                </g>
                <text x="181.687px" y="303.391px" style="font-family:'MezzaStd', 'Mezza Std';font-size:60.417px;"></text>
            </g>
            <g transform="matrix(1.301857,0,0,1.295491,-26.531827,1140.351499)">
                <g transform="matrix(60.416664,0,0,60.416664,123.167391,383.241368)">
                </g>
                <text x="117.065px" y="383.241px" style="font-family:'MezzaStd', 'Mezza Std';font-size:60.417px;"></text>
            </g>
            <g transform="matrix(1.301857,0,0,1.295491,1244.251004,1155.448288)">
                <g transform="matrix(60.416664,0,0,60.416664,431.419306,386.921368)">
                </g>
                <text x="425.317px" y="386.921px" style="font-family:'MezzaStd', 'Mezza Std';font-size:60.417px;"></text>
            </g>
            <g transform="matrix(1.301857,0,0,1.295491,1502.141392,1155.448288)">
                <g transform="matrix(60.416664,0,0,60.416664,493.975397,386.921368)">
                </g>
                <text x="487.873px" y="386.921px" style="font-family:'MezzaStd', 'Mezza Std';font-size:60.417px;"></text>
            </g>
            <g transform="matrix(1.301857,0,0,1.295491,1244.251004,1362.000268)">
                <g transform="matrix(60.416664,0,0,60.416664,431.419306,437.270566)">
                </g>
                <text x="425.317px" y="437.271px" style="font-family:'MezzaStd', 'Mezza Std';font-size:60.417px;"></text>
            </g>
            <g transform="matrix(1.301857,0,0,1.295491,1502.141392,1362.000268)">
                <g transform="matrix(60.416664,0,0,60.416664,493.975397,437.270566)">
                </g>
                <text x="487.873px" y="437.271px" style="font-family:'MezzaStd', 'Mezza Std';font-size:60.417px;"></text>
            </g>
        </g>
    </g>
</svg>
